<mxfile host="app.diagrams.net" modified="2024-03-05T02:44:14.660Z" agent="Mozilla/5.0 (Macintosh; Intel Mac OS X 10_15_7) AppleWebKit/537.36 (KHTML, like Gecko) Chrome/116.0.0.0 Safari/537.36 Edg/116.0.1938.81" etag="WLse0dmp-81jExsB4ey7" version="24.0.0" type="github" pages="3">
  <diagram id="1jXioZAuApvLet1IEbzY" name="Demo">
    <mxGraphModel dx="899" dy="568" grid="1" gridSize="10" guides="1" tooltips="1" connect="1" arrows="1" fold="1" page="1" pageScale="1" pageWidth="1169" pageHeight="827" math="0" shadow="0">
      <root>
        <mxCell id="0" />
        <mxCell id="1" parent="0" />
        <mxCell id="DixZKIWGH3Xp9nX-QX3U-1" value="" style="shape=image;imageAspect=0;aspect=fixed;verticalLabelPosition=bottom;verticalAlign=top;strokeColor=default;align=center;fontFamily=Helvetica;fontSize=12;fontColor=default;fillColor=default;image=https://c4model.com/img/c4-overview.png;" parent="1" vertex="1">
          <mxGeometry width="1460.61" height="823" as="geometry" />
        </mxCell>
      </root>
    </mxGraphModel>
  </diagram>
  <diagram name="Level-1" id="FFmg-6OXhBP9H9dWHYlk">
    <mxGraphModel dx="899" dy="568" grid="1" gridSize="10" guides="1" tooltips="1" connect="1" arrows="1" fold="1" page="1" pageScale="1" pageWidth="827" pageHeight="1169" math="0" shadow="0">
      <root>
        <mxCell id="0" />
        <mxCell id="1" parent="0" />
        <object placeholders="1" c4Name="运营" c4Type="Person" c4Description="操作主体 : 金融/数科/CAP/浩淼" label="&lt;font style=&quot;font-size: 16px&quot;&gt;&lt;b&gt;%c4Name%&lt;/b&gt;&lt;/font&gt;&lt;div&gt;[%c4Type%]&lt;/div&gt;&lt;br&gt;&lt;div&gt;&lt;font style=&quot;font-size: 11px&quot;&gt;&lt;font color=&quot;#cccccc&quot;&gt;%c4Description%&lt;/font&gt;&lt;/div&gt;" id="IzBpSC75Lcns6cSvXki5-1">
          <mxCell style="html=1;fontSize=11;dashed=0;whiteSpace=wrap;fillColor=#083F75;strokeColor=#06315C;fontColor=#ffffff;shape=mxgraph.c4.person2;align=center;metaEdit=1;points=[[0.5,0,0],[1,0.5,0],[1,0.75,0],[0.75,1,0],[0.5,1,0],[0.25,1,0],[0,0.75,0],[0,0.5,0]];resizable=0;" parent="1" vertex="1">
            <mxGeometry x="1090" y="980" width="200" height="180" as="geometry" />
          </mxCell>
        </object>
        <mxCell id="IzBpSC75Lcns6cSvXki5-9" style="edgeStyle=orthogonalEdgeStyle;rounded=0;orthogonalLoop=1;jettySize=auto;html=1;exitX=0.5;exitY=1;exitDx=0;exitDy=0;exitPerimeter=0;" parent="1" source="IzBpSC75Lcns6cSvXki5-2" target="IzBpSC75Lcns6cSvXki5-5" edge="1">
          <mxGeometry relative="1" as="geometry" />
        </mxCell>
        <mxCell id="khqzWMbjaXRr-mYHxi9M-1" value="股票（经纪）/资金" style="edgeLabel;html=1;align=center;verticalAlign=middle;resizable=0;points=[];" parent="IzBpSC75Lcns6cSvXki5-9" vertex="1" connectable="0">
          <mxGeometry x="0.8121" y="1" relative="1" as="geometry">
            <mxPoint x="-1" y="28" as="offset" />
          </mxGeometry>
        </mxCell>
        <object placeholders="1" c4Name="客户" c4Type="Person" c4Description="与亚丁签约的个人或团体客户。" label="&lt;font style=&quot;font-size: 16px&quot;&gt;&lt;b&gt;%c4Name%&lt;/b&gt;&lt;/font&gt;&lt;div&gt;[%c4Type%]&lt;/div&gt;&lt;br&gt;&lt;div&gt;&lt;font style=&quot;font-size: 11px&quot;&gt;&lt;font color=&quot;#cccccc&quot;&gt;%c4Description%&lt;/font&gt;&lt;/div&gt;" id="IzBpSC75Lcns6cSvXki5-2">
          <mxCell style="html=1;fontSize=11;dashed=0;whiteSpace=wrap;fillColor=#6C6477;strokeColor=#4D4D4D;fontColor=#ffffff;shape=mxgraph.c4.person2;align=center;metaEdit=1;points=[[0.5,0,0],[1,0.5,0],[1,0.75,0],[0.75,1,0],[0.5,1,0],[0.25,1,0],[0,0.75,0],[0,0.5,0]];resizable=0;" parent="1" vertex="1">
            <mxGeometry x="730" y="20" width="200" height="180" as="geometry" />
          </mxCell>
        </object>
        <mxCell id="6pHxYC2a_yhWoSQ6z3BF-63" style="rounded=0;orthogonalLoop=1;jettySize=auto;html=1;exitX=0.5;exitY=0;exitDx=0;exitDy=0;exitPerimeter=0;fontFamily=Helvetica;fontSize=12;fontColor=default;entryX=0.25;entryY=1;entryDx=0;entryDy=0;entryPerimeter=0;" parent="1" source="IzBpSC75Lcns6cSvXki5-3" target="6pHxYC2a_yhWoSQ6z3BF-36" edge="1">
          <mxGeometry relative="1" as="geometry" />
        </mxCell>
        <object placeholders="1" c4Name="投资顾问" c4Type="Person" c4Description="提供投资建议的顾问" label="&lt;font style=&quot;font-size: 16px&quot;&gt;&lt;b&gt;%c4Name%&lt;/b&gt;&lt;/font&gt;&lt;div&gt;[%c4Type%]&lt;/div&gt;&lt;br&gt;&lt;div&gt;&lt;font style=&quot;font-size: 11px&quot;&gt;&lt;font color=&quot;#cccccc&quot;&gt;%c4Description%&lt;/font&gt;&lt;/div&gt;" id="IzBpSC75Lcns6cSvXki5-3">
          <mxCell style="html=1;fontSize=11;dashed=0;whiteSpace=wrap;fillColor=#6C6477;strokeColor=#4D4D4D;fontColor=#ffffff;shape=mxgraph.c4.person2;align=center;metaEdit=1;points=[[0.5,0,0],[1,0.5,0],[1,0.75,0],[0.75,1,0],[0.5,1,0],[0.25,1,0],[0,0.75,0],[0,0.5,0]];resizable=0;" parent="1" vertex="1">
            <mxGeometry x="390" y="1740" width="200" height="180" as="geometry" />
          </mxCell>
        </object>
        <object placeholders="1" c4Name="线索顾问" c4Type="Person" c4Description="提供市场线索的顾问" label="&lt;font style=&quot;font-size: 16px&quot;&gt;&lt;b&gt;%c4Name%&lt;/b&gt;&lt;/font&gt;&lt;div&gt;[%c4Type%]&lt;/div&gt;&lt;br&gt;&lt;div&gt;&lt;font style=&quot;font-size: 11px&quot;&gt;&lt;font color=&quot;#cccccc&quot;&gt;%c4Description%&lt;/font&gt;&lt;/div&gt;" id="IzBpSC75Lcns6cSvXki5-4">
          <mxCell style="html=1;fontSize=11;dashed=0;whiteSpace=wrap;fillColor=#6C6477;strokeColor=#4D4D4D;fontColor=#ffffff;shape=mxgraph.c4.person2;align=center;metaEdit=1;points=[[0.5,0,0],[1,0.5,0],[1,0.75,0],[0.75,1,0],[0.5,1,0],[0.25,1,0],[0,0.75,0],[0,0.5,0]];resizable=0;" parent="1" vertex="1">
            <mxGeometry x="1100" y="1740" width="200" height="180" as="geometry" />
          </mxCell>
        </object>
        <mxCell id="6pHxYC2a_yhWoSQ6z3BF-5" style="edgeStyle=orthogonalEdgeStyle;rounded=0;orthogonalLoop=1;jettySize=auto;html=1;exitX=0.5;exitY=1;exitDx=0;exitDy=0;exitPerimeter=0;" parent="1" source="IzBpSC75Lcns6cSvXki5-6" edge="1">
          <mxGeometry relative="1" as="geometry">
            <mxPoint x="830" y="770" as="targetPoint" />
          </mxGeometry>
        </mxCell>
        <object placeholders="1" c4Name="客户后台集中管理系统" c4Type="Software System : Web" c4Description="使用主体 : 金融/数科/CAP" label="&lt;font style=&quot;font-size: 16px&quot;&gt;&lt;b&gt;%c4Name%&lt;/b&gt;&lt;/font&gt;&lt;div&gt;[%c4Type%]&lt;/div&gt;&lt;br&gt;&lt;div&gt;&lt;font style=&quot;font-size: 11px&quot;&gt;&lt;font color=&quot;#cccccc&quot;&gt;%c4Description%&lt;/font&gt;&lt;/div&gt;" id="IzBpSC75Lcns6cSvXki5-7">
          <mxCell style="rounded=1;whiteSpace=wrap;html=1;labelBackgroundColor=none;fillColor=#1061B0;fontColor=#ffffff;align=center;arcSize=10;strokeColor=#0D5091;metaEdit=1;resizable=0;points=[[0.25,0,0],[0.5,0,0],[0.75,0,0],[1,0.25,0],[1,0.5,0],[1,0.75,0],[0.75,1,0],[0.5,1,0],[0.25,1,0],[0,0.75,0],[0,0.5,0],[0,0.25,0]];" parent="1" vertex="1">
            <mxGeometry x="574" y="440" width="240" height="120" as="geometry" />
          </mxCell>
        </object>
        <mxCell id="IzBpSC75Lcns6cSvXki5-14" style="edgeStyle=orthogonalEdgeStyle;rounded=0;orthogonalLoop=1;jettySize=auto;html=1;exitX=0.5;exitY=1;exitDx=0;exitDy=0;exitPerimeter=0;entryX=0.5;entryY=0;entryDx=0;entryDy=0;entryPerimeter=0;" parent="1" source="IzBpSC75Lcns6cSvXki5-2" target="IzBpSC75Lcns6cSvXki5-7" edge="1">
          <mxGeometry relative="1" as="geometry" />
        </mxCell>
        <mxCell id="khqzWMbjaXRr-mYHxi9M-3" value="期权/票据/债券" style="edgeLabel;html=1;align=center;verticalAlign=middle;resizable=0;points=[];" parent="IzBpSC75Lcns6cSvXki5-14" vertex="1" connectable="0">
          <mxGeometry x="0.6737" relative="1" as="geometry">
            <mxPoint as="offset" />
          </mxGeometry>
        </mxCell>
        <mxCell id="IzBpSC75Lcns6cSvXki5-15" style="edgeStyle=orthogonalEdgeStyle;rounded=0;orthogonalLoop=1;jettySize=auto;html=1;exitX=0.5;exitY=1;exitDx=0;exitDy=0;exitPerimeter=0;entryX=0.5;entryY=0;entryDx=0;entryDy=0;entryPerimeter=0;" parent="1" source="IzBpSC75Lcns6cSvXki5-2" target="IzBpSC75Lcns6cSvXki5-6" edge="1">
          <mxGeometry relative="1" as="geometry" />
        </mxCell>
        <mxCell id="khqzWMbjaXRr-mYHxi9M-6" value="期权/资金" style="edgeLabel;html=1;align=center;verticalAlign=middle;resizable=0;points=[];" parent="IzBpSC75Lcns6cSvXki5-15" vertex="1" connectable="0">
          <mxGeometry x="0.6895" y="1" relative="1" as="geometry">
            <mxPoint x="-1" y="-1" as="offset" />
          </mxGeometry>
        </mxCell>
        <mxCell id="6pHxYC2a_yhWoSQ6z3BF-6" style="edgeStyle=orthogonalEdgeStyle;rounded=0;orthogonalLoop=1;jettySize=auto;html=1;exitX=0.5;exitY=1;exitDx=0;exitDy=0;exitPerimeter=0;" parent="1" source="IzBpSC75Lcns6cSvXki5-16" edge="1">
          <mxGeometry relative="1" as="geometry">
            <mxPoint x="830" y="770" as="targetPoint" />
          </mxGeometry>
        </mxCell>
        <object placeholders="1" c4Name="Aden-Trade/A-Trade&#xa;/N-Trade/Aden-Trading" c4Type="Software System : Windows" c4Description="使用主体 : 金融/数科/CAP" label="&lt;font style=&quot;font-size: 16px&quot;&gt;&lt;b&gt;%c4Name%&lt;/b&gt;&lt;/font&gt;&lt;div&gt;[%c4Type%]&lt;/div&gt;&lt;br&gt;&lt;div&gt;&lt;font style=&quot;font-size: 11px&quot;&gt;&lt;font color=&quot;#cccccc&quot;&gt;%c4Description%&lt;/font&gt;&lt;/div&gt;" id="IzBpSC75Lcns6cSvXki5-16">
          <mxCell style="rounded=1;whiteSpace=wrap;html=1;labelBackgroundColor=none;fillColor=#1061B0;fontColor=#ffffff;align=center;arcSize=10;strokeColor=#0D5091;metaEdit=1;resizable=0;points=[[0.25,0,0],[0.5,0,0],[0.75,0,0],[1,0.25,0],[1,0.5,0],[1,0.75,0],[0.75,1,0],[0.5,1,0],[0.25,1,0],[0,0.75,0],[0,0.5,0],[0,0.25,0]];" parent="1" vertex="1">
            <mxGeometry x="1118" y="440" width="240" height="120" as="geometry" />
          </mxCell>
        </object>
        <mxCell id="IzBpSC75Lcns6cSvXki5-17" style="edgeStyle=orthogonalEdgeStyle;rounded=0;orthogonalLoop=1;jettySize=auto;html=1;exitX=0.5;exitY=1;exitDx=0;exitDy=0;exitPerimeter=0;entryX=0.5;entryY=0;entryDx=0;entryDy=0;entryPerimeter=0;" parent="1" source="IzBpSC75Lcns6cSvXki5-2" target="IzBpSC75Lcns6cSvXki5-16" edge="1">
          <mxGeometry relative="1" as="geometry" />
        </mxCell>
        <mxCell id="khqzWMbjaXRr-mYHxi9M-5" value="股票（互换）" style="edgeLabel;html=1;align=center;verticalAlign=middle;resizable=0;points=[];" parent="IzBpSC75Lcns6cSvXki5-17" vertex="1" connectable="0">
          <mxGeometry x="0.8242" relative="1" as="geometry">
            <mxPoint y="-2" as="offset" />
          </mxGeometry>
        </mxCell>
        <object placeholders="1" c4Name="友迹" c4Type="Software System : Windows" c4Description="" label="&lt;font style=&quot;font-size: 16px&quot;&gt;&lt;b&gt;%c4Name%&lt;/b&gt;&lt;/font&gt;&lt;div&gt;[%c4Type%]&lt;/div&gt;&lt;br&gt;&lt;div&gt;&lt;font style=&quot;font-size: 11px&quot;&gt;&lt;font color=&quot;#cccccc&quot;&gt;%c4Description%&lt;/font&gt;&lt;/div&gt;" id="IzBpSC75Lcns6cSvXki5-18">
          <mxCell style="rounded=1;whiteSpace=wrap;html=1;labelBackgroundColor=none;fillColor=#8C8496;fontColor=#ffffff;align=center;arcSize=10;strokeColor=#736782;metaEdit=1;resizable=0;points=[[0.25,0,0],[0.5,0,0],[0.75,0,0],[1,0.25,0],[1,0.5,0],[1,0.75,0],[0.75,1,0],[0.5,1,0],[0.25,1,0],[0,0.75,0],[0,0.5,0],[0,0.25,0]];" parent="1" vertex="1">
            <mxGeometry x="1390" y="440" width="240" height="120" as="geometry" />
          </mxCell>
        </object>
        <mxCell id="IzBpSC75Lcns6cSvXki5-19" style="edgeStyle=orthogonalEdgeStyle;rounded=0;orthogonalLoop=1;jettySize=auto;html=1;exitX=0.5;exitY=1;exitDx=0;exitDy=0;exitPerimeter=0;entryX=0.5;entryY=0;entryDx=0;entryDy=0;entryPerimeter=0;" parent="1" source="IzBpSC75Lcns6cSvXki5-2" target="IzBpSC75Lcns6cSvXki5-18" edge="1">
          <mxGeometry relative="1" as="geometry">
            <Array as="points">
              <mxPoint x="830" y="320" />
              <mxPoint x="1510" y="320" />
            </Array>
            <mxPoint x="1570" y="390" as="targetPoint" />
          </mxGeometry>
        </mxCell>
        <mxCell id="khqzWMbjaXRr-mYHxi9M-4" value="融券" style="edgeLabel;html=1;align=center;verticalAlign=middle;resizable=0;points=[];" parent="IzBpSC75Lcns6cSvXki5-19" vertex="1" connectable="0">
          <mxGeometry x="0.8766" y="-1" relative="1" as="geometry">
            <mxPoint x="1" y="-2" as="offset" />
          </mxGeometry>
        </mxCell>
        <object placeholders="1" c4Name="中台管理系统" c4Type="Software System : Web" c4Description="使用主体 : 金融/数科/CAP&#xa;部署主体 : 金融/中华通" label="&lt;font style=&quot;font-size: 16px&quot;&gt;&lt;b&gt;%c4Name%&lt;/b&gt;&lt;/font&gt;&lt;div&gt;[%c4Type%]&lt;/div&gt;&lt;br&gt;&lt;div&gt;&lt;font style=&quot;font-size: 11px&quot;&gt;&lt;font color=&quot;#cccccc&quot;&gt;%c4Description%&lt;/font&gt;&lt;/div&gt;" id="IzBpSC75Lcns6cSvXki5-20">
          <mxCell style="rounded=1;whiteSpace=wrap;html=1;labelBackgroundColor=none;fillColor=#1061B0;fontColor=#ffffff;align=center;arcSize=10;strokeColor=#0D5091;metaEdit=1;resizable=0;points=[[0.25,0,0],[0.5,0,0],[0.75,0,0],[1,0.25,0],[1,0.5,0],[1,0.75,0],[0.75,1,0],[0.5,1,0],[0.25,1,0],[0,0.75,0],[0,0.5,0],[0,0.25,0]];" parent="1" vertex="1">
            <mxGeometry x="710" y="770" width="240" height="120" as="geometry" />
          </mxCell>
        </object>
        <mxCell id="IzBpSC75Lcns6cSvXki5-21" style="rounded=0;orthogonalLoop=1;jettySize=auto;html=1;entryX=1;entryY=0.75;entryDx=0;entryDy=0;entryPerimeter=0;exitX=0;exitY=0.5;exitDx=0;exitDy=0;exitPerimeter=0;" parent="1" source="IzBpSC75Lcns6cSvXki5-1" target="IzBpSC75Lcns6cSvXki5-20" edge="1">
          <mxGeometry relative="1" as="geometry">
            <mxPoint x="1330" y="830" as="sourcePoint" />
          </mxGeometry>
        </mxCell>
        <object placeholders="1" c4Name="恒生" c4Type="Software System : Windows" c4Description="使用主体 : 金融" label="&lt;font style=&quot;font-size: 16px&quot;&gt;&lt;b&gt;%c4Name%&lt;/b&gt;&lt;/font&gt;&lt;div&gt;[%c4Type%]&lt;/div&gt;&lt;br&gt;&lt;div&gt;&lt;font style=&quot;font-size: 11px&quot;&gt;&lt;font color=&quot;#cccccc&quot;&gt;%c4Description%&lt;/font&gt;&lt;/div&gt;" id="IzBpSC75Lcns6cSvXki5-22">
          <mxCell style="rounded=1;whiteSpace=wrap;html=1;labelBackgroundColor=none;fillColor=#8C8496;fontColor=#ffffff;align=center;arcSize=10;strokeColor=#736782;metaEdit=1;resizable=0;points=[[0.25,0,0],[0.5,0,0],[0.75,0,0],[1,0.25,0],[1,0.5,0],[1,0.75,0],[0.75,1,0],[0.5,1,0],[0.25,1,0],[0,0.75,0],[0,0.5,0],[0,0.25,0]];" parent="1" vertex="1">
            <mxGeometry x="30" y="700" width="240" height="120" as="geometry" />
          </mxCell>
        </object>
        <mxCell id="6pHxYC2a_yhWoSQ6z3BF-1" style="edgeStyle=orthogonalEdgeStyle;rounded=0;orthogonalLoop=1;jettySize=auto;html=1;exitX=0.5;exitY=1;exitDx=0;exitDy=0;exitPerimeter=0;entryX=0.5;entryY=0;entryDx=0;entryDy=0;entryPerimeter=0;" parent="1" source="IzBpSC75Lcns6cSvXki5-5" target="IzBpSC75Lcns6cSvXki5-22" edge="1">
          <mxGeometry relative="1" as="geometry" />
        </mxCell>
        <mxCell id="6pHxYC2a_yhWoSQ6z3BF-59" value="指令处理" style="edgeLabel;html=1;align=center;verticalAlign=middle;resizable=0;points=[];strokeColor=default;fontFamily=Helvetica;fontSize=12;fontColor=default;fillColor=default;" parent="6pHxYC2a_yhWoSQ6z3BF-1" vertex="1" connectable="0">
          <mxGeometry x="0.0952" y="-1" relative="1" as="geometry">
            <mxPoint as="offset" />
          </mxGeometry>
        </mxCell>
        <mxCell id="6pHxYC2a_yhWoSQ6z3BF-3" style="rounded=0;orthogonalLoop=1;jettySize=auto;html=1;exitX=1;exitY=0.5;exitDx=0;exitDy=0;exitPerimeter=0;entryX=0;entryY=0.75;entryDx=0;entryDy=0;entryPerimeter=0;" parent="1" source="6pHxYC2a_yhWoSQ6z3BF-2" target="IzBpSC75Lcns6cSvXki5-20" edge="1">
          <mxGeometry relative="1" as="geometry" />
        </mxCell>
        <object placeholders="1" c4Name="持牌代表" c4Type="Person" c4Description="操作主体 : 金融" label="&lt;font style=&quot;font-size: 16px&quot;&gt;&lt;b&gt;%c4Name%&lt;/b&gt;&lt;/font&gt;&lt;div&gt;[%c4Type%]&lt;/div&gt;&lt;br&gt;&lt;div&gt;&lt;font style=&quot;font-size: 11px&quot;&gt;&lt;font color=&quot;#cccccc&quot;&gt;%c4Description%&lt;/font&gt;&lt;/div&gt;" id="6pHxYC2a_yhWoSQ6z3BF-2">
          <mxCell style="html=1;fontSize=11;dashed=0;whiteSpace=wrap;fillColor=#083F75;strokeColor=#06315C;fontColor=#ffffff;shape=mxgraph.c4.person2;align=center;metaEdit=1;points=[[0.5,0,0],[1,0.5,0],[1,0.75,0],[0.75,1,0],[0.5,1,0],[0.25,1,0],[0,0.75,0],[0,0.5,0]];resizable=0;" parent="1" vertex="1">
            <mxGeometry x="390" y="980" width="200" height="180" as="geometry" />
          </mxCell>
        </object>
        <mxCell id="6pHxYC2a_yhWoSQ6z3BF-4" style="edgeStyle=orthogonalEdgeStyle;rounded=0;orthogonalLoop=1;jettySize=auto;html=1;exitX=0.5;exitY=1;exitDx=0;exitDy=0;exitPerimeter=0;entryX=0.5;entryY=0;entryDx=0;entryDy=0;entryPerimeter=0;" parent="1" source="IzBpSC75Lcns6cSvXki5-7" target="IzBpSC75Lcns6cSvXki5-20" edge="1">
          <mxGeometry relative="1" as="geometry" />
        </mxCell>
        <mxCell id="6pHxYC2a_yhWoSQ6z3BF-7" style="edgeStyle=orthogonalEdgeStyle;rounded=0;orthogonalLoop=1;jettySize=auto;html=1;exitX=0.5;exitY=1;exitDx=0;exitDy=0;exitPerimeter=0;entryX=0.5;entryY=0;entryDx=0;entryDy=0;entryPerimeter=0;" parent="1" source="IzBpSC75Lcns6cSvXki5-18" target="IzBpSC75Lcns6cSvXki5-20" edge="1">
          <mxGeometry relative="1" as="geometry" />
        </mxCell>
        <object placeholders="1" c4Name="开户链接" c4Type="Software System : H5" c4Description="使用主体 : 金融/数科/CAP" label="&lt;font style=&quot;font-size: 16px&quot;&gt;&lt;b&gt;%c4Name%&lt;/b&gt;&lt;/font&gt;&lt;div&gt;[%c4Type%]&lt;/div&gt;&lt;br&gt;&lt;div&gt;&lt;font style=&quot;font-size: 11px&quot;&gt;&lt;font color=&quot;#cccccc&quot;&gt;%c4Description%&lt;/font&gt;&lt;/div&gt;" id="6pHxYC2a_yhWoSQ6z3BF-8">
          <mxCell style="rounded=1;whiteSpace=wrap;html=1;labelBackgroundColor=none;fillColor=#1061B0;fontColor=#ffffff;align=center;arcSize=10;strokeColor=#0D5091;metaEdit=1;resizable=0;points=[[0.25,0,0],[0.5,0,0],[0.75,0,0],[1,0.25,0],[1,0.5,0],[1,0.75,0],[0.75,1,0],[0.5,1,0],[0.25,1,0],[0,0.75,0],[0,0.5,0],[0,0.25,0]];" parent="1" vertex="1">
            <mxGeometry x="302" y="440" width="240" height="120" as="geometry" />
          </mxCell>
        </object>
        <mxCell id="6pHxYC2a_yhWoSQ6z3BF-9" value="示例" style="shape=table;startSize=30;container=1;collapsible=0;childLayout=tableLayout;fontSize=16;align=left;verticalAlign=top;fillColor=none;strokeColor=none;fontColor=#4D4D4D;fontStyle=1;spacingLeft=6;spacing=0;resizable=0;" parent="1" vertex="1">
          <mxGeometry x="30" y="20" width="239" height="210" as="geometry" />
        </mxCell>
        <mxCell id="6pHxYC2a_yhWoSQ6z3BF-10" value="" style="shape=tableRow;horizontal=0;startSize=0;swimlaneHead=0;swimlaneBody=0;strokeColor=inherit;top=0;left=0;bottom=0;right=0;collapsible=0;dropTarget=0;fillColor=none;points=[[0,0.5],[1,0.5]];portConstraint=eastwest;fontSize=12;" parent="6pHxYC2a_yhWoSQ6z3BF-9" vertex="1">
          <mxGeometry y="30" width="239" height="30" as="geometry" />
        </mxCell>
        <mxCell id="6pHxYC2a_yhWoSQ6z3BF-11" value="Person : 人员" style="shape=partialRectangle;html=1;whiteSpace=wrap;connectable=0;strokeColor=inherit;overflow=hidden;fillColor=#1E4074;top=0;left=0;bottom=0;right=0;pointerEvents=1;fontSize=12;align=left;fontColor=#FFFFFF;gradientColor=none;spacingLeft=10;spacingRight=4;" parent="6pHxYC2a_yhWoSQ6z3BF-10" vertex="1">
          <mxGeometry width="239" height="30" as="geometry">
            <mxRectangle width="239" height="30" as="alternateBounds" />
          </mxGeometry>
        </mxCell>
        <mxCell id="6pHxYC2a_yhWoSQ6z3BF-12" value="" style="shape=tableRow;horizontal=0;startSize=0;swimlaneHead=0;swimlaneBody=0;strokeColor=inherit;top=0;left=0;bottom=0;right=0;collapsible=0;dropTarget=0;fillColor=none;points=[[0,0.5],[1,0.5]];portConstraint=eastwest;fontSize=12;" parent="6pHxYC2a_yhWoSQ6z3BF-9" vertex="1">
          <mxGeometry y="60" width="239" height="30" as="geometry" />
        </mxCell>
        <mxCell id="6pHxYC2a_yhWoSQ6z3BF-13" value="Software System :&amp;nbsp;平台系统" style="shape=partialRectangle;html=1;whiteSpace=wrap;connectable=0;strokeColor=inherit;overflow=hidden;fillColor=#3162AF;top=0;left=0;bottom=0;right=0;pointerEvents=1;fontSize=12;align=left;fontColor=#FFFFFF;gradientColor=none;spacingLeft=10;spacingRight=4;" parent="6pHxYC2a_yhWoSQ6z3BF-12" vertex="1">
          <mxGeometry width="239" height="30" as="geometry">
            <mxRectangle width="239" height="30" as="alternateBounds" />
          </mxGeometry>
        </mxCell>
        <mxCell id="6pHxYC2a_yhWoSQ6z3BF-14" value="" style="shape=tableRow;horizontal=0;startSize=0;swimlaneHead=0;swimlaneBody=0;strokeColor=inherit;top=0;left=0;bottom=0;right=0;collapsible=0;dropTarget=0;fillColor=none;points=[[0,0.5],[1,0.5]];portConstraint=eastwest;fontSize=12;" parent="6pHxYC2a_yhWoSQ6z3BF-9" vertex="1">
          <mxGeometry y="90" width="239" height="30" as="geometry" />
        </mxCell>
        <mxCell id="6pHxYC2a_yhWoSQ6z3BF-15" value="Container :&amp;nbsp;部署系统" style="shape=partialRectangle;html=1;whiteSpace=wrap;connectable=0;strokeColor=inherit;overflow=hidden;fillColor=#52a2d8;top=0;left=0;bottom=0;right=0;pointerEvents=1;fontSize=12;align=left;fontColor=#FFFFFF;gradientColor=none;spacingLeft=10;spacingRight=4;" parent="6pHxYC2a_yhWoSQ6z3BF-14" vertex="1">
          <mxGeometry width="239" height="30" as="geometry">
            <mxRectangle width="239" height="30" as="alternateBounds" />
          </mxGeometry>
        </mxCell>
        <mxCell id="6pHxYC2a_yhWoSQ6z3BF-16" value="" style="shape=tableRow;horizontal=0;startSize=0;swimlaneHead=0;swimlaneBody=0;strokeColor=inherit;top=0;left=0;bottom=0;right=0;collapsible=0;dropTarget=0;fillColor=none;points=[[0,0.5],[1,0.5]];portConstraint=eastwest;fontSize=12;" parent="6pHxYC2a_yhWoSQ6z3BF-9" vertex="1">
          <mxGeometry y="120" width="239" height="30" as="geometry" />
        </mxCell>
        <mxCell id="6pHxYC2a_yhWoSQ6z3BF-17" value="Component :&amp;nbsp;组件模块" style="shape=partialRectangle;html=1;whiteSpace=wrap;connectable=0;strokeColor=inherit;overflow=hidden;fillColor=#7dbef2;top=0;left=0;bottom=0;right=0;pointerEvents=1;fontSize=12;align=left;fontColor=#FFFFFF;gradientColor=none;spacingLeft=10;spacingRight=4;" parent="6pHxYC2a_yhWoSQ6z3BF-16" vertex="1">
          <mxGeometry width="239" height="30" as="geometry">
            <mxRectangle width="239" height="30" as="alternateBounds" />
          </mxGeometry>
        </mxCell>
        <mxCell id="6pHxYC2a_yhWoSQ6z3BF-18" value="" style="shape=tableRow;horizontal=0;startSize=0;swimlaneHead=0;swimlaneBody=0;strokeColor=inherit;top=0;left=0;bottom=0;right=0;collapsible=0;dropTarget=0;fillColor=none;points=[[0,0.5],[1,0.5]];portConstraint=eastwest;fontSize=12;" parent="6pHxYC2a_yhWoSQ6z3BF-9" vertex="1">
          <mxGeometry y="150" width="239" height="30" as="geometry" />
        </mxCell>
        <mxCell id="6pHxYC2a_yhWoSQ6z3BF-19" value="External Person :&amp;nbsp;外部人员" style="shape=partialRectangle;html=1;whiteSpace=wrap;connectable=0;strokeColor=inherit;overflow=hidden;fillColor=#6b6477;top=0;left=0;bottom=0;right=0;pointerEvents=1;fontSize=12;align=left;fontColor=#FFFFFF;gradientColor=none;spacingLeft=10;spacingRight=4;" parent="6pHxYC2a_yhWoSQ6z3BF-18" vertex="1">
          <mxGeometry width="239" height="30" as="geometry">
            <mxRectangle width="239" height="30" as="alternateBounds" />
          </mxGeometry>
        </mxCell>
        <mxCell id="6pHxYC2a_yhWoSQ6z3BF-20" value="" style="shape=tableRow;horizontal=0;startSize=0;swimlaneHead=0;swimlaneBody=0;strokeColor=inherit;top=0;left=0;bottom=0;right=0;collapsible=0;dropTarget=0;fillColor=none;points=[[0,0.5],[1,0.5]];portConstraint=eastwest;fontSize=12;" parent="6pHxYC2a_yhWoSQ6z3BF-9" vertex="1">
          <mxGeometry y="180" width="239" height="30" as="geometry" />
        </mxCell>
        <mxCell id="6pHxYC2a_yhWoSQ6z3BF-21" value="External Software System :&amp;nbsp;外部平台系统" style="shape=partialRectangle;html=1;whiteSpace=wrap;connectable=0;strokeColor=inherit;overflow=hidden;fillColor=#8b8496;top=0;left=0;bottom=0;right=0;pointerEvents=1;fontSize=12;align=left;fontColor=#FFFFFF;gradientColor=none;spacingLeft=10;spacingRight=4;" parent="6pHxYC2a_yhWoSQ6z3BF-20" vertex="1">
          <mxGeometry width="239" height="30" as="geometry">
            <mxRectangle width="239" height="30" as="alternateBounds" />
          </mxGeometry>
        </mxCell>
        <mxCell id="6pHxYC2a_yhWoSQ6z3BF-22" style="edgeStyle=orthogonalEdgeStyle;rounded=0;orthogonalLoop=1;jettySize=auto;html=1;exitX=0.5;exitY=1;exitDx=0;exitDy=0;exitPerimeter=0;entryX=0.5;entryY=0;entryDx=0;entryDy=0;entryPerimeter=0;" parent="1" source="IzBpSC75Lcns6cSvXki5-2" target="6pHxYC2a_yhWoSQ6z3BF-8" edge="1">
          <mxGeometry relative="1" as="geometry" />
        </mxCell>
        <mxCell id="6pHxYC2a_yhWoSQ6z3BF-23" value="开户" style="edgeLabel;html=1;align=center;verticalAlign=middle;resizable=0;points=[];" parent="6pHxYC2a_yhWoSQ6z3BF-22" vertex="1" connectable="0">
          <mxGeometry x="0.8203" y="1" relative="1" as="geometry">
            <mxPoint as="offset" />
          </mxGeometry>
        </mxCell>
        <mxCell id="6pHxYC2a_yhWoSQ6z3BF-57" value="线上指令" style="edgeLabel;html=1;align=center;verticalAlign=middle;resizable=0;points=[];strokeColor=default;fontFamily=Helvetica;fontSize=12;fontColor=default;fillColor=default;" parent="6pHxYC2a_yhWoSQ6z3BF-22" vertex="1" connectable="0">
          <mxGeometry x="-0.8241" relative="1" as="geometry">
            <mxPoint as="offset" />
          </mxGeometry>
        </mxCell>
        <mxCell id="6pHxYC2a_yhWoSQ6z3BF-24" style="edgeStyle=orthogonalEdgeStyle;rounded=0;orthogonalLoop=1;jettySize=auto;html=1;exitX=0.5;exitY=1;exitDx=0;exitDy=0;exitPerimeter=0;entryX=0.5;entryY=0;entryDx=0;entryDy=0;entryPerimeter=0;" parent="1" source="6pHxYC2a_yhWoSQ6z3BF-8" target="IzBpSC75Lcns6cSvXki5-20" edge="1">
          <mxGeometry relative="1" as="geometry" />
        </mxCell>
        <mxCell id="6pHxYC2a_yhWoSQ6z3BF-58" value="指令处理" style="edgeLabel;html=1;align=center;verticalAlign=middle;resizable=0;points=[];strokeColor=default;fontFamily=Helvetica;fontSize=12;fontColor=default;fillColor=default;" parent="6pHxYC2a_yhWoSQ6z3BF-24" vertex="1" connectable="0">
          <mxGeometry x="0.8285" y="1" relative="1" as="geometry">
            <mxPoint as="offset" />
          </mxGeometry>
        </mxCell>
        <mxCell id="6pHxYC2a_yhWoSQ6z3BF-25" style="rounded=0;orthogonalLoop=1;jettySize=auto;html=1;exitX=0;exitY=0.5;exitDx=0;exitDy=0;exitPerimeter=0;entryX=1;entryY=0.75;entryDx=0;entryDy=0;entryPerimeter=0;" parent="1" source="6pHxYC2a_yhWoSQ6z3BF-2" target="IzBpSC75Lcns6cSvXki5-22" edge="1">
          <mxGeometry relative="1" as="geometry" />
        </mxCell>
        <object placeholders="1" c4Name="邮件系统" c4Type="Software System" c4Description="" label="&lt;font style=&quot;font-size: 16px&quot;&gt;&lt;b&gt;%c4Name%&lt;/b&gt;&lt;/font&gt;&lt;div&gt;[%c4Type%]&lt;/div&gt;&lt;br&gt;&lt;div&gt;&lt;font style=&quot;font-size: 11px&quot;&gt;&lt;font color=&quot;#cccccc&quot;&gt;%c4Description%&lt;/font&gt;&lt;/div&gt;" id="6pHxYC2a_yhWoSQ6z3BF-26">
          <mxCell style="rounded=1;whiteSpace=wrap;html=1;labelBackgroundColor=none;fillColor=#8C8496;fontColor=#ffffff;align=center;arcSize=10;strokeColor=#736782;metaEdit=1;resizable=0;points=[[0.25,0,0],[0.5,0,0],[0.75,0,0],[1,0.25,0],[1,0.5,0],[1,0.75,0],[0.75,1,0],[0.5,1,0],[0.25,1,0],[0,0.75,0],[0,0.5,0],[0,0.25,0]];" parent="1" vertex="1">
            <mxGeometry x="1358" y="700" width="240" height="120" as="geometry" />
          </mxCell>
        </object>
        <object placeholders="1" c4Name="供应商系统" c4Type="Software System" c4Description="" label="&lt;font style=&quot;font-size: 16px&quot;&gt;&lt;b&gt;%c4Name%&lt;/b&gt;&lt;/font&gt;&lt;div&gt;[%c4Type%]&lt;/div&gt;&lt;br&gt;&lt;div&gt;&lt;font style=&quot;font-size: 11px&quot;&gt;&lt;font color=&quot;#cccccc&quot;&gt;%c4Description%&lt;/font&gt;&lt;/div&gt;" id="6pHxYC2a_yhWoSQ6z3BF-27">
          <mxCell style="rounded=1;whiteSpace=wrap;html=1;labelBackgroundColor=none;fillColor=#8C8496;fontColor=#ffffff;align=center;arcSize=10;strokeColor=#736782;metaEdit=1;resizable=0;points=[[0.25,0,0],[0.5,0,0],[0.75,0,0],[1,0.25,0],[1,0.5,0],[1,0.75,0],[0.75,1,0],[0.5,1,0],[0.25,1,0],[0,0.75,0],[0,0.5,0],[0,0.25,0]];" parent="1" vertex="1">
            <mxGeometry x="1358" y="860" width="240" height="120" as="geometry" />
          </mxCell>
        </object>
        <mxCell id="6pHxYC2a_yhWoSQ6z3BF-28" style="edgeStyle=orthogonalEdgeStyle;rounded=0;orthogonalLoop=1;jettySize=auto;html=1;exitX=1;exitY=0.75;exitDx=0;exitDy=0;exitPerimeter=0;entryX=1;entryY=0.5;entryDx=0;entryDy=0;entryPerimeter=0;" parent="1" source="IzBpSC75Lcns6cSvXki5-2" target="6pHxYC2a_yhWoSQ6z3BF-26" edge="1">
          <mxGeometry relative="1" as="geometry">
            <Array as="points">
              <mxPoint x="1640" y="155" />
              <mxPoint x="1640" y="760" />
            </Array>
          </mxGeometry>
        </mxCell>
        <mxCell id="6pHxYC2a_yhWoSQ6z3BF-56" value="线下指令" style="edgeLabel;html=1;align=center;verticalAlign=middle;resizable=0;points=[];strokeColor=default;fontFamily=Helvetica;fontSize=12;fontColor=default;fillColor=default;" parent="6pHxYC2a_yhWoSQ6z3BF-28" vertex="1" connectable="0">
          <mxGeometry x="-0.5387" y="-1" relative="1" as="geometry">
            <mxPoint as="offset" />
          </mxGeometry>
        </mxCell>
        <mxCell id="6pHxYC2a_yhWoSQ6z3BF-29" style="rounded=0;orthogonalLoop=1;jettySize=auto;html=1;exitX=0;exitY=0.5;exitDx=0;exitDy=0;exitPerimeter=0;entryX=1;entryY=0.25;entryDx=0;entryDy=0;entryPerimeter=0;" parent="1" source="6pHxYC2a_yhWoSQ6z3BF-26" target="IzBpSC75Lcns6cSvXki5-20" edge="1">
          <mxGeometry relative="1" as="geometry" />
        </mxCell>
        <mxCell id="6pHxYC2a_yhWoSQ6z3BF-31" style="rounded=0;orthogonalLoop=1;jettySize=auto;html=1;exitX=1;exitY=0.5;exitDx=0;exitDy=0;exitPerimeter=0;entryX=0;entryY=0.5;entryDx=0;entryDy=0;entryPerimeter=0;" parent="1" source="IzBpSC75Lcns6cSvXki5-20" target="6pHxYC2a_yhWoSQ6z3BF-27" edge="1">
          <mxGeometry relative="1" as="geometry" />
        </mxCell>
        <mxCell id="6pHxYC2a_yhWoSQ6z3BF-32" style="edgeStyle=orthogonalEdgeStyle;rounded=0;orthogonalLoop=1;jettySize=auto;html=1;exitX=0.5;exitY=0;exitDx=0;exitDy=0;exitPerimeter=0;entryX=0.5;entryY=1;entryDx=0;entryDy=0;entryPerimeter=0;" parent="1" source="6pHxYC2a_yhWoSQ6z3BF-27" target="6pHxYC2a_yhWoSQ6z3BF-26" edge="1">
          <mxGeometry relative="1" as="geometry" />
        </mxCell>
        <object placeholders="1" c4Name="投资顾问系统" c4Type="Software System : Web" c4Description="使用主体 : 金融/数科/CAP&#xa;部署主体 : 中华通" label="&lt;font style=&quot;font-size: 16px&quot;&gt;&lt;b&gt;%c4Name%&lt;/b&gt;&lt;/font&gt;&lt;div&gt;[%c4Type%]&lt;/div&gt;&lt;br&gt;&lt;div&gt;&lt;font style=&quot;font-size: 11px&quot;&gt;&lt;font color=&quot;#cccccc&quot;&gt;%c4Description%&lt;/font&gt;&lt;/div&gt;" id="6pHxYC2a_yhWoSQ6z3BF-33">
          <mxCell style="rounded=1;whiteSpace=wrap;html=1;labelBackgroundColor=none;fillColor=#1061B0;fontColor=#ffffff;align=center;arcSize=10;strokeColor=#0D5091;metaEdit=1;resizable=0;points=[[0.25,0,0],[0.5,0,0],[0.75,0,0],[1,0.25,0],[1,0.5,0],[1,0.75,0],[0.75,1,0],[0.5,1,0],[0.25,1,0],[0,0.75,0],[0,0.5,0],[0,0.25,0]];" parent="1" vertex="1">
            <mxGeometry x="440" y="1290" width="240" height="120" as="geometry" />
          </mxCell>
        </object>
        <object placeholders="1" c4Name="线索顾问系统" c4Type="Software System : Web-腾讯云" c4Description="使用主体 : 浩淼&#xa;部署主体 : 浩淼" label="&lt;font style=&quot;font-size: 16px&quot;&gt;&lt;b&gt;%c4Name%&lt;/b&gt;&lt;/font&gt;&lt;div&gt;[%c4Type%]&lt;/div&gt;&lt;br&gt;&lt;div&gt;&lt;font style=&quot;font-size: 11px&quot;&gt;&lt;font color=&quot;#cccccc&quot;&gt;%c4Description%&lt;/font&gt;&lt;/div&gt;" id="6pHxYC2a_yhWoSQ6z3BF-34">
          <mxCell style="rounded=1;whiteSpace=wrap;html=1;labelBackgroundColor=none;fillColor=#1061B0;fontColor=#ffffff;align=center;arcSize=10;strokeColor=#0D5091;metaEdit=1;resizable=0;points=[[0.25,0,0],[0.5,0,0],[0.75,0,0],[1,0.25,0],[1,0.5,0],[1,0.75,0],[0.75,1,0],[0.5,1,0],[0.25,1,0],[0,0.75,0],[0,0.5,0],[0,0.25,0]];" parent="1" vertex="1">
            <mxGeometry x="1001" y="1290" width="240" height="120" as="geometry" />
          </mxCell>
        </object>
        <mxCell id="6pHxYC2a_yhWoSQ6z3BF-37" style="edgeStyle=orthogonalEdgeStyle;rounded=0;orthogonalLoop=1;jettySize=auto;html=1;exitX=0.5;exitY=0;exitDx=0;exitDy=0;exitPerimeter=0;entryX=0.5;entryY=1;entryDx=0;entryDy=0;entryPerimeter=0;" parent="1" source="6pHxYC2a_yhWoSQ6z3BF-35" target="6pHxYC2a_yhWoSQ6z3BF-34" edge="1">
          <mxGeometry relative="1" as="geometry" />
        </mxCell>
        <mxCell id="6pHxYC2a_yhWoSQ6z3BF-38" style="edgeStyle=orthogonalEdgeStyle;rounded=0;orthogonalLoop=1;jettySize=auto;html=1;exitX=0;exitY=0.5;exitDx=0;exitDy=0;exitPerimeter=0;entryX=1;entryY=0.5;entryDx=0;entryDy=0;entryPerimeter=0;" parent="1" source="6pHxYC2a_yhWoSQ6z3BF-34" target="6pHxYC2a_yhWoSQ6z3BF-33" edge="1">
          <mxGeometry relative="1" as="geometry" />
        </mxCell>
        <mxCell id="6pHxYC2a_yhWoSQ6z3BF-39" style="edgeStyle=orthogonalEdgeStyle;rounded=0;orthogonalLoop=1;jettySize=auto;html=1;exitX=0.5;exitY=0;exitDx=0;exitDy=0;exitPerimeter=0;entryX=0.5;entryY=1;entryDx=0;entryDy=0;entryPerimeter=0;" parent="1" source="6pHxYC2a_yhWoSQ6z3BF-36" target="6pHxYC2a_yhWoSQ6z3BF-33" edge="1">
          <mxGeometry relative="1" as="geometry" />
        </mxCell>
        <mxCell id="6pHxYC2a_yhWoSQ6z3BF-47" value="" style="group" parent="1" vertex="1" connectable="0">
          <mxGeometry x="860" y="1500" width="240" height="121" as="geometry" />
        </mxCell>
        <object placeholders="1" c4Name="HM Consultant" c4Type="Software System : IOS/Android" c4Description="线索顾问APP&#xa;使用主体 : 浩淼" label="&lt;font style=&quot;font-size: 16px&quot;&gt;&lt;b&gt;%c4Name%&lt;/b&gt;&lt;/font&gt;&lt;div&gt;[%c4Type%]&lt;/div&gt;&lt;br&gt;&lt;div&gt;&lt;font style=&quot;font-size: 11px&quot;&gt;&lt;font color=&quot;#cccccc&quot;&gt;%c4Description%&lt;/font&gt;&lt;/div&gt;" id="6pHxYC2a_yhWoSQ6z3BF-35">
          <mxCell style="rounded=1;whiteSpace=wrap;html=1;labelBackgroundColor=none;fillColor=#1061B0;fontColor=#ffffff;align=center;arcSize=10;strokeColor=#0D5091;metaEdit=1;resizable=0;points=[[0.25,0,0],[0.5,0,0],[0.75,0,0],[1,0.25,0],[1,0.5,0],[1,0.75,0],[0.75,1,0],[0.5,1,0],[0.25,1,0],[0,0.75,0],[0,0.5,0],[0,0.25,0]];" parent="6pHxYC2a_yhWoSQ6z3BF-47" vertex="1">
            <mxGeometry width="240" height="120" as="geometry" />
          </mxCell>
        </object>
        <mxCell id="6pHxYC2a_yhWoSQ6z3BF-43" value="" style="shape=image;imageAspect=0;aspect=fixed;verticalLabelPosition=bottom;verticalAlign=top;image=https://cdn-app-icon.pgyer.com/a/c/3/9/6/ac39684d5265f5430d662267aa8ecfac?x-oss-process=image/resize,m_lfit,h_120,w_120/format,jpg;" parent="6pHxYC2a_yhWoSQ6z3BF-47" vertex="1">
          <mxGeometry y="81" width="40" height="40" as="geometry" />
        </mxCell>
        <mxCell id="6pHxYC2a_yhWoSQ6z3BF-51" value="" style="group" parent="1" vertex="1" connectable="0">
          <mxGeometry x="440" y="1500" width="240" height="121" as="geometry" />
        </mxCell>
        <object placeholders="1" c4Name="Dolphin Advisor" c4Type="Software System : IOS/Android" c4Description="投资顾问APP&#xa;使用主体 : 金融/数科/CAP" label="&lt;font style=&quot;font-size: 16px&quot;&gt;&lt;b&gt;%c4Name%&lt;/b&gt;&lt;/font&gt;&lt;div&gt;[%c4Type%]&lt;/div&gt;&lt;br&gt;&lt;div&gt;&lt;font style=&quot;font-size: 11px&quot;&gt;&lt;font color=&quot;#cccccc&quot;&gt;%c4Description%&lt;/font&gt;&lt;/div&gt;" id="6pHxYC2a_yhWoSQ6z3BF-36">
          <mxCell style="rounded=1;whiteSpace=wrap;html=1;labelBackgroundColor=none;fillColor=#1061B0;fontColor=#ffffff;align=center;arcSize=10;strokeColor=#0D5091;metaEdit=1;resizable=0;points=[[0.25,0,0],[0.5,0,0],[0.75,0,0],[1,0.25,0],[1,0.5,0],[1,0.75,0],[0.75,1,0],[0.5,1,0],[0.25,1,0],[0,0.75,0],[0,0.5,0],[0,0.25,0]];" parent="6pHxYC2a_yhWoSQ6z3BF-51" vertex="1">
            <mxGeometry width="240" height="120" as="geometry" />
          </mxCell>
        </object>
        <mxCell id="6pHxYC2a_yhWoSQ6z3BF-44" value="" style="shape=image;imageAspect=0;verticalLabelPosition=bottom;verticalAlign=top;image=https://cdn-app-icon.pgyer.com/3/6/6/f/5/366f53ce4bb916e4804fb4aae2019ffd?x-oss-process=image/resize,m_lfit,h_120,w_120/format,jpg;aspect=fixed;" parent="6pHxYC2a_yhWoSQ6z3BF-51" vertex="1">
          <mxGeometry y="81" width="40" height="40" as="geometry" />
        </mxCell>
        <object placeholders="1" c4Name="服务主管" c4Type="Person" c4Description="操作主体 : 金融/数科/CAP" label="&lt;font style=&quot;font-size: 16px&quot;&gt;&lt;b&gt;%c4Name%&lt;/b&gt;&lt;/font&gt;&lt;div&gt;[%c4Type%]&lt;/div&gt;&lt;br&gt;&lt;div&gt;&lt;font style=&quot;font-size: 11px&quot;&gt;&lt;font color=&quot;#cccccc&quot;&gt;%c4Description%&lt;/font&gt;&lt;/div&gt;" id="6pHxYC2a_yhWoSQ6z3BF-52">
          <mxCell style="html=1;fontSize=11;dashed=0;whiteSpace=wrap;fillColor=#083F75;strokeColor=#06315C;fontColor=#ffffff;shape=mxgraph.c4.person2;align=center;metaEdit=1;points=[[0.5,0,0],[1,0.5,0],[1,0.75,0],[0.75,1,0],[0.5,1,0],[0.25,1,0],[0,0.75,0],[0,0.5,0]];resizable=0;" parent="1" vertex="1">
            <mxGeometry x="102" y="1340" width="200" height="180" as="geometry" />
          </mxCell>
        </object>
        <mxCell id="6pHxYC2a_yhWoSQ6z3BF-53" style="rounded=0;orthogonalLoop=1;jettySize=auto;html=1;exitX=1;exitY=0.5;exitDx=0;exitDy=0;exitPerimeter=0;entryX=0;entryY=0.5;entryDx=0;entryDy=0;entryPerimeter=0;fontFamily=Helvetica;fontSize=12;fontColor=default;" parent="1" source="6pHxYC2a_yhWoSQ6z3BF-52" target="6pHxYC2a_yhWoSQ6z3BF-33" edge="1">
          <mxGeometry relative="1" as="geometry" />
        </mxCell>
        <mxCell id="6pHxYC2a_yhWoSQ6z3BF-54" style="rounded=0;orthogonalLoop=1;jettySize=auto;html=1;exitX=1;exitY=0.75;exitDx=0;exitDy=0;exitPerimeter=0;entryX=0;entryY=0.5;entryDx=0;entryDy=0;entryPerimeter=0;fontFamily=Helvetica;fontSize=12;fontColor=default;" parent="1" source="6pHxYC2a_yhWoSQ6z3BF-52" target="6pHxYC2a_yhWoSQ6z3BF-36" edge="1">
          <mxGeometry relative="1" as="geometry" />
        </mxCell>
        <mxCell id="6pHxYC2a_yhWoSQ6z3BF-55" style="rounded=0;orthogonalLoop=1;jettySize=auto;html=1;exitX=0.5;exitY=0;exitDx=0;exitDy=0;exitPerimeter=0;entryX=0.25;entryY=1;entryDx=0;entryDy=0;entryPerimeter=0;fontFamily=Helvetica;fontSize=12;fontColor=default;" parent="1" source="6pHxYC2a_yhWoSQ6z3BF-33" target="IzBpSC75Lcns6cSvXki5-20" edge="1">
          <mxGeometry relative="1" as="geometry" />
        </mxCell>
        <object placeholders="1" c4Name="HKEX" c4Type="Software System" c4Description="使用主体 : 金融" label="&lt;font style=&quot;font-size: 16px&quot;&gt;&lt;b&gt;%c4Name%&lt;/b&gt;&lt;/font&gt;&lt;div&gt;[%c4Type%]&lt;/div&gt;&lt;br&gt;&lt;div&gt;&lt;font style=&quot;font-size: 11px&quot;&gt;&lt;font color=&quot;#cccccc&quot;&gt;%c4Description%&lt;/font&gt;&lt;/div&gt;" id="6pHxYC2a_yhWoSQ6z3BF-60">
          <mxCell style="rounded=1;whiteSpace=wrap;html=1;labelBackgroundColor=none;fillColor=#8C8496;fontColor=#ffffff;align=center;arcSize=10;strokeColor=#736782;metaEdit=1;resizable=0;points=[[0.25,0,0],[0.5,0,0],[0.75,0,0],[1,0.25,0],[1,0.5,0],[1,0.75,0],[0.75,1,0],[0.5,1,0],[0.25,1,0],[0,0.75,0],[0,0.5,0],[0,0.25,0]];" parent="1" vertex="1">
            <mxGeometry x="30" y="860" width="240" height="120" as="geometry" />
          </mxCell>
        </object>
        <mxCell id="6pHxYC2a_yhWoSQ6z3BF-61" style="edgeStyle=orthogonalEdgeStyle;rounded=0;orthogonalLoop=1;jettySize=auto;html=1;exitX=0.5;exitY=1;exitDx=0;exitDy=0;exitPerimeter=0;entryX=0.5;entryY=0;entryDx=0;entryDy=0;entryPerimeter=0;fontFamily=Helvetica;fontSize=12;fontColor=default;" parent="1" source="IzBpSC75Lcns6cSvXki5-22" target="6pHxYC2a_yhWoSQ6z3BF-60" edge="1">
          <mxGeometry relative="1" as="geometry" />
        </mxCell>
        <mxCell id="6pHxYC2a_yhWoSQ6z3BF-62" style="rounded=0;orthogonalLoop=1;jettySize=auto;html=1;exitX=0;exitY=0.75;exitDx=0;exitDy=0;exitPerimeter=0;entryX=0.75;entryY=0;entryDx=0;entryDy=0;entryPerimeter=0;fontFamily=Helvetica;fontSize=12;fontColor=default;" parent="1" source="IzBpSC75Lcns6cSvXki5-1" target="6pHxYC2a_yhWoSQ6z3BF-33" edge="1">
          <mxGeometry relative="1" as="geometry" />
        </mxCell>
        <mxCell id="6pHxYC2a_yhWoSQ6z3BF-64" style="rounded=0;orthogonalLoop=1;jettySize=auto;html=1;exitX=0.5;exitY=0;exitDx=0;exitDy=0;exitPerimeter=0;entryX=0.75;entryY=1;entryDx=0;entryDy=0;entryPerimeter=0;fontFamily=Helvetica;fontSize=12;fontColor=default;" parent="1" source="IzBpSC75Lcns6cSvXki5-4" target="6pHxYC2a_yhWoSQ6z3BF-35" edge="1">
          <mxGeometry relative="1" as="geometry" />
        </mxCell>
        <mxCell id="6pHxYC2a_yhWoSQ6z3BF-65" style="rounded=0;orthogonalLoop=1;jettySize=auto;html=1;exitX=0.25;exitY=1;exitDx=0;exitDy=0;exitPerimeter=0;entryX=0.5;entryY=0;entryDx=0;entryDy=0;entryPerimeter=0;fontFamily=Helvetica;fontSize=12;fontColor=default;" parent="1" source="IzBpSC75Lcns6cSvXki5-1" target="6pHxYC2a_yhWoSQ6z3BF-34" edge="1">
          <mxGeometry relative="1" as="geometry" />
        </mxCell>
        <mxCell id="6pHxYC2a_yhWoSQ6z3BF-66" value="" style="group" parent="1" vertex="1" connectable="0">
          <mxGeometry x="1140" y="1500" width="240" height="121" as="geometry" />
        </mxCell>
        <object placeholders="1" c4Name="Consultant" c4Type="Software System : 小程序" c4Description="线索顾问小程序&#xa;使用主体 : 浩淼" label="&lt;font style=&quot;font-size: 16px&quot;&gt;&lt;b&gt;%c4Name%&lt;/b&gt;&lt;/font&gt;&lt;div&gt;[%c4Type%]&lt;/div&gt;&lt;br&gt;&lt;div&gt;&lt;font style=&quot;font-size: 11px&quot;&gt;&lt;font color=&quot;#cccccc&quot;&gt;%c4Description%&lt;/font&gt;&lt;/div&gt;" id="6pHxYC2a_yhWoSQ6z3BF-67">
          <mxCell style="rounded=1;whiteSpace=wrap;html=1;labelBackgroundColor=none;fillColor=#1061B0;fontColor=#ffffff;align=center;arcSize=10;strokeColor=#0D5091;metaEdit=1;resizable=0;points=[[0.25,0,0],[0.5,0,0],[0.75,0,0],[1,0.25,0],[1,0.5,0],[1,0.75,0],[0.75,1,0],[0.5,1,0],[0.25,1,0],[0,0.75,0],[0,0.5,0],[0,0.25,0]];" parent="6pHxYC2a_yhWoSQ6z3BF-66" vertex="1">
            <mxGeometry width="240" height="120" as="geometry" />
          </mxCell>
        </object>
        <mxCell id="6pHxYC2a_yhWoSQ6z3BF-68" value="" style="shape=image;imageAspect=0;aspect=fixed;verticalLabelPosition=bottom;verticalAlign=top;image=https://cdn-app-icon.pgyer.com/a/c/3/9/6/ac39684d5265f5430d662267aa8ecfac?x-oss-process=image/resize,m_lfit,h_120,w_120/format,jpg;" parent="6pHxYC2a_yhWoSQ6z3BF-66" vertex="1">
          <mxGeometry y="81" width="40" height="40" as="geometry" />
        </mxCell>
        <mxCell id="6pHxYC2a_yhWoSQ6z3BF-70" style="rounded=0;orthogonalLoop=1;jettySize=auto;html=1;exitX=0.5;exitY=0;exitDx=0;exitDy=0;exitPerimeter=0;entryX=0.75;entryY=1;entryDx=0;entryDy=0;entryPerimeter=0;fontFamily=Helvetica;fontSize=12;fontColor=default;" parent="1" source="6pHxYC2a_yhWoSQ6z3BF-81" target="6pHxYC2a_yhWoSQ6z3BF-36" edge="1">
          <mxGeometry relative="1" as="geometry" />
        </mxCell>
        <mxCell id="6pHxYC2a_yhWoSQ6z3BF-71" style="rounded=0;orthogonalLoop=1;jettySize=auto;html=1;exitX=0.5;exitY=0;exitDx=0;exitDy=0;exitPerimeter=0;entryX=0.5;entryY=1;entryDx=0;entryDy=0;entryPerimeter=0;fontFamily=Helvetica;fontSize=12;fontColor=default;" parent="1" source="6pHxYC2a_yhWoSQ6z3BF-81" target="6pHxYC2a_yhWoSQ6z3BF-35" edge="1">
          <mxGeometry relative="1" as="geometry" />
        </mxCell>
        <mxCell id="6pHxYC2a_yhWoSQ6z3BF-72" style="edgeStyle=orthogonalEdgeStyle;rounded=0;orthogonalLoop=1;jettySize=auto;html=1;exitX=0.5;exitY=0;exitDx=0;exitDy=0;exitPerimeter=0;entryX=0.5;entryY=1;entryDx=0;entryDy=0;entryPerimeter=0;fontFamily=Helvetica;fontSize=12;fontColor=default;" parent="1" source="6pHxYC2a_yhWoSQ6z3BF-67" target="6pHxYC2a_yhWoSQ6z3BF-34" edge="1">
          <mxGeometry relative="1" as="geometry" />
        </mxCell>
        <mxCell id="6pHxYC2a_yhWoSQ6z3BF-74" value="" style="group" parent="1" vertex="1" connectable="0">
          <mxGeometry x="30" y="440" width="240" height="121" as="geometry" />
        </mxCell>
        <object placeholders="1" c4Name="亚丁" c4Type="Software System : IOS/Android" c4Description="亚丁金融APP&#xa;使用主体 : 金融" label="&lt;font style=&quot;font-size: 16px&quot;&gt;&lt;b&gt;%c4Name%&lt;/b&gt;&lt;/font&gt;&lt;div&gt;[%c4Type%]&lt;/div&gt;&lt;br&gt;&lt;div&gt;&lt;font style=&quot;font-size: 11px&quot;&gt;&lt;font color=&quot;#cccccc&quot;&gt;%c4Description%&lt;/font&gt;&lt;/div&gt;" id="IzBpSC75Lcns6cSvXki5-5">
          <mxCell style="rounded=1;whiteSpace=wrap;html=1;labelBackgroundColor=none;fillColor=#1061B0;fontColor=#ffffff;align=center;arcSize=10;strokeColor=#0D5091;metaEdit=1;resizable=0;points=[[0.25,0,0],[0.5,0,0],[0.75,0,0],[1,0.25,0],[1,0.5,0],[1,0.75,0],[0.75,1,0],[0.5,1,0],[0.25,1,0],[0,0.75,0],[0,0.5,0],[0,0.25,0]];" parent="6pHxYC2a_yhWoSQ6z3BF-74" vertex="1">
            <mxGeometry width="240" height="120" as="geometry" />
          </mxCell>
        </object>
        <mxCell id="6pHxYC2a_yhWoSQ6z3BF-73" value="" style="shape=image;imageAspect=0;aspect=fixed;verticalLabelPosition=bottom;verticalAlign=top;strokeColor=default;align=center;fontFamily=Helvetica;fontSize=12;fontColor=default;fillColor=default;image=data:image/png,iVBORw0KGgoAAAANSUhEUgAAAYAAAAGACAMAAACTGUWNAAABfVBMVEUAAAAwkP85lf8wkP8wkP8xkf87mP/P//8wkP8vkf80k/8wj/8xj/8wj/8wkP8wkP8vkf8xkP8xkf8wj/8vkP8wkP8wj/8vkP8wkP8xkP8vkP8ukP8vkP8wkP8xkv82kf8/mv8xj/8xj/82kP8ukv8ulf8vj///////uQC+2v+72f/x9v/L4v+ex/9NnP7h7f9Km/46k/9Pnv88lf9xr/9vrv/R5f/W5/9OlOTErFExkP8+lv/+/v5Zo/81kv+At//w9v+11f+rz/9kqf/6/P7l8P7t9P/d6/+v0v9oq/+Zxf+Guv94tP9Sn/9Bl//X6P+ozf/a6v/O4//D3f+iyv91sf9EmP/8/f5Hmv6Twf+Pv/+KvP9Vof/T5v9trf/j7v+51/9fpf94nLbz+P/o8v99tf/3+v6Fn6fG3/+Vwv84kfiPoZuppnn8twD1+f/0+f/V5//A2/9hl9DCq1bMrUXytgDjsgA/kvJFk+xcltdsmsObo4zqtAC3qmPcsCG9cxRcAAAAJnRSTlMA+hO0d2IOAcV9IOvl3r6IaFlA/e/o16CCXvLk0o86GArKcC4pGjVbnukAAAsUSURBVHja7NuLbtowFIfxfxKSEC6FptwZo6zjvP8jTlWndb2I4pL4SNb3e4R8kmUfO7rOuZ0fitNqv3swXPSw269OxWHeHtWVUbmeGILt1+VINxttpoZvWzU3NajmQ8ONhvNHfU/VLAwdGDeVwuWznaEji02uMHU5NnRovK0V4Im1v3PDJ12rbtjt9yAb1LrK8c7QiyLXFdqloSeTVl/aZobeZPf6wsDQq1+6pD4YejbTBXz/CGasP8EirUJbQxT3+lTL/ieSrNUnjuz/o5nk+qDm/BtRUeu9xhDR4MP8k/lbVNlvvVEzf47sTm+Uhsi2+k/O/Vd0y0qvZoboNvon5/7dwaJiC+proL8q3v+4WD7qxdzgotQLzgAeXs8CI4OTkZ5tDE4aPeP9uZsVK5CzM2MgX1tJa4ObtST+/3I0lc4GR7lag6OfzCF8lbxG9DVTYXBU6GRwNNTK4OiH9gZHU3Ed7GosXsS5ymQIQIDUECAMAVJDgDAESA0BwhAgNQQIQ4DUECAMAVJDgDAESA0BwhAgNQQIQ4DUECAMAVJDgDAESA0BwhAgNQQIQ4DUECAMAVJDgDAESA0BwhDgD3v22tNUEIRx/NvMLKEIpRXxQGkL1HIrFgUtd1MvjUCDclfQz+4LEtI9nF5mM3E3m+f3AfbNP3NmNyc2CCCDALFBABkEiA0CyCBAbBBABgFigwAyCBAbBJBBgNgggAwCxAYBZBAgNggggwCxQQAZBIgNAsggQGwQQAYBYoMAMggQGwSQQYDYIIAMAsQGAWQQIDYIIIMAsUEAGQSIjTzA9zGPVtbWlxLK1lQ5v9yiDL9fZ/lzdto+IQGVACvsWaVapCyTrGL+cP954rbpp3vVETTQCDDB/r09EgSQO96hlAszwHUnITH3APscgvdzggByzYQsd2agm18k5R6gxEGolSjlh2rgVIEHM1C3TULuAajGQThfJdtP1rRCljMzxCkJuQdochjGG2RZZFXr9jXIDCOdAfcApXkOw7G9BzZYVcU6PXkwQ3SFe8A9AH3iQFSpV36ZVW1Tr44Z5iYhEfcA08schnl7EY+xqs8L1OuvcVwD+gFojQORo14HH1nV0dCngO36hETcA9AYB8IegSqrWiRLx3kE9APktzgME9SrUFeeL+FV9Ipk3APQXI6DUCdLY1z5cNu9GeKWZNwDULLIQWiRpVRjPW8ord1VfAvYAeSKQXyGlsi2qTia4/TM7KUZ5J7E3ANQUq6zd18prVhXDmC7uDL9nZGQHUCusZs7/sY+7dJzS9tb56oBbLedy5trk+mSJOwA7gpTfRxw2sxUWpPTylMSBcqWnx5NY7VcrYgCPDqZzXJHInYAfQVOy43we6dI/9vCXkUQQBUCPGq9QgCvAWjhHQJ4DUCbNQTwGoB2EMBvADpEAL8B9hDAb4AXCOA3AC0jgN8AXxDAb4BJBEAATQgwAgR4ggAIoAwBRoAATxAAAZQhwAgQ4EmMAT44BdggL2IM8NIpwAR5EWGA5NApQKVFPkQXIL86w04BuPaPvfvqaSOIwjD8b74jcAJZm4Bkr3sBdzAY0wOiiNyk/P+bQIohw9rKWe9smXzPvS1rXxfJO3NmUEL8Mhzgord915Jg+gDB/M54vwmbMhvgQ90XQ1QBTJMb2JPVAN2aSFwBZHYOazIaoNsSqwFMp7AlmwE2ahJvAH8LlmQzwLrEHEDaFdiRyQBlP/YA0ocdmQygvnqHMH0WdUM7MhlgLEp7MFVFaebBikwGyInSGUw3onUBK7IYoCJaebzREaUurMhiAE+UtvHWkSh9hBX/RYAm3irlGCAcfYAGgtwzQDjqAI9FBOoxQCjaAI0iFui3GCAEXYBxF4sN13wG0AsOcDveMU2ue2Usd3Jef/dtx9RhgCUCA+TuEaWbTQZYwhPra0qGDwywSFCADqK2xgCLBAWYIGpHDLCYF8N/xe8ZYBEGiAADzDFAEAZYggEiwABzDBCEAZZggAgwwBwDBGGAJRggAgwwxwBBGGAJBogAA8wxQBAGWIIBIsAAcwwQhAGWYIAI8Kb8nBsBuCxFKeoAMkW08l8YYJHAALkBolTe5dLEJTwJULvcNr2rnw6x3HF/73D7jTsuzl3Kk3932cRi+WsuTw/DE439IhaocoNGOJ6oHHKL0huxBpB9BBn4DBAKt6lGIOYAE5i4UTvxUQV3HFUQFod1rG7FAAccV7OiFQMcJTCwaQI7MhmgLPGPLDuHHZkMgO+xB7jj0L7X8rmYA/hTWJLNAPg4izdAD7ZkNACucjEG8E9hTVYDIL8WW4BxE/ZkNgBQPhrXrAf4url3BZsyHOBZxXtSKBRKz0aj4+PjjcFuyAC184unx49Go9KTp+f0nlRgW8YDBKnshgrwJY8kOBgA01ABjpAIFwOcZOsYq09iqME6HuT2SlsMbVjHAK90xLAD6xjglS9ieIR1DPDiWEzXsI4BXjSTOFSRAV6ciekK1jHAi0Mx+AVYxwBzxVsx7MI+Bpibimkf9jHA3KGYyrCPAf7YmInhG2LAAH/siamPGDDAb8OZGDoeYsAAvz0m9AFggF+qYjooIg4M8NNJTUxXiAUDPKtciqmBeDDAs4aYxhXEgwGenIrpNo+YMADQ98XQiu8lRBKgtLFAWUzbG6aGmKobGgWsqDoTw2wAa6IOMDx9136QJJ1hNWe+GPwqLIk6QLG/K4kbYCXvxdSqwpKoA2yl4PKLNLECb11MtS7siDpAsSGpcILw8gdi2s3DjqgDlN5JKhwgvEFOTPUCLIk4gHcg6fAeYXl1MXWmsCTyAN8lJcoIqdsW0/UIlkQeoCcp8YhwRnUx7TRhS+QB8i1JB7+MUKodMbTvYU30AdYlJeoIo7kjhs1+BdZEH+DGl3TYLEAvvy6GyRT22AiwL+mQG0Ltw57x9dnZL8MiKwHakgq3XWidNFry2sP6VhEJ0wcoSyp8uoDS8O93f7vxsYLk6QOcSxoclqBzs+a/qlc/v0A66AO8l+TtdKFSub+UXx4OrnvTEdJDH2BPEtapb0FldDbeHE/WGp+rV3mkjT7A6XqCGr1+M/HfTb3lAUiBAVzDADoM4BoG0GEA1zCADgO4hgF0GMA1DKDDAK5hAB0GcA0D6DCAaxhAhwFcwwA6DOAaBtBhANcwgA4DuIYBdBjANQygwwCuYQAdBnANA+gwgGsYQIcBXMMAOgzgGgbQYQDXMIAOA7iGAXQYwDUMoMMArmEAHQZwDQPoMIBrGECHAVzDAD/atRedBoEgCsMHWKAXoKUXSxUpap33f0RjjbfapqzATrI53yv8YYeBtcMAvmEAOwzgGwawwwC+YQA7DOAbBrDDAL5hADsM4BsGsMMAvmEAOwzgGwawwwC+YQA7DOCbAGshRQHuhRTN8SCkKMedkKIaT0KKJoiEFEV4FFK0wFJIUYyVkKIGByFFIbgIaMoB7ITU7ADEQmpKADMhNQcA/Bihp8a7qZASA/AM0jTDyURIRYETfo3QEuNDOxdSsG0BcAzrMfiUbISc2yT4Ugk5N8W3kFPAuSzBD3shx0r8lHIXcKzAby+BkEPBEWeMkEMG51LeT3EoSvFHmAk5koW4YMUx4EjQ4KJSyIV1iSuehRxY4qqF0OgqgAUUVTjhKaRjvcQNJd+FRhSUuGnFfWA0WYMOQu7EI4lCdJIaHkMjCEyKro6F0MCKI2zst0IDykpYSir+qR/MZprAXmL4FAxiaxL8TxtzFvRWxC16mE15e72H2szQ2+t+lwtZy3flAUMJm3gRTep8HtAN87yeRIu4CdHJG/lyxCTBrR3iAAAAAElFTkSuQmCC;base64,iVBORw0KGgoAAAANSUhEUgAAAMAAAADACAYAAABS3GwHAAAgAElEQVR42u29aZAk13Uu9p17M6uqq/fZMPu+Y2awiaBAEgS4YiPWAQiQNMl4kmX7WVTYzw4/hSNocCgx9IJ2WBF61Hthx6MV5hP1tAAYgQAJgoAFgBTEBSABcDCYFTOYfevu6bW6a8m8xz/uzcybWVlV3TM9QPd03o6MrK7KysrKOuee73xnuYTpGLtObQToPrC6AUybQLwMTJ0AigATspGNSx7EAMZBPAqm0yA+CBJvAvwMdi0/dNlnv+R3/snZD8FXDwH8AJg3Zz9UNt5/3aADAD0NKXbj8SWvvz8KsOvU9WD+NhifzX6BbMwcZcALIPpj7Fr+1pVRgG+dWYWa+hYYX8pgTTZmLFwi/A1c8XV8fenx6VOAXScfgqL/DHB7dpOzMQsUoQTBX8GuFbtbHSmavspM2HX6cSh6MhP+bMyewe1Q9CR2nX4c3BytNH7xz7kNQ6e/B/Aj2Q3Nxiy2Bk+gZ9lX8T/RxOQtADNlwp+Nq8QaPIKh099rZAlkutL8N4+D+Q+zm5eNq2Rci5+NKbzy5z9tDYG+eXInfHoiY3qycZVBIYbgh5OOcVzIv3VmFarqnczhzcZVqgQl5MS1NkUa9wFq6luZ8GfjKvYH2rWMp1mAXaeuh8IbGfTJxtUPhXBjEDGOLADztzPhz8YcsAKkZd22AH9y9kPwvNeym5ONOTMc52Y8vuR1bQGU2pndkWzMqeGrhyIIxHx/dkeyMceg0AMaAu06tRGKD2Y3JBtzbgjaJAC6L7sT2Zibg+5zwOqG7EZM8nbVm1G0fGo6eTWe1EXFnuTsZ2tyP9UNDpg2ZbdpKsLPcYEk67nEbSTiab+Ixtm9FH1++LkUXnf2C6cpAG1ydAF7di9aCz+nT8cMEAFgjv5hWyGm1wRQ8LnB5zABRODgM8n+TL4CZuhq+mF5maO7N2QaMCnhZzO7sjW7k5H74BilYvJGrKZxwrJOrELNAzODiBKGiCwLFV5mNuI3tNMBUMzuxCQwvy38kYiFMz+BQwkj5kmA96lfTXReAhNHFsYIP1sWiQMrEcdq2YiPopOlP0zC86wTfjYwm0HM0XN6ajZCaEEhuvxLSFoBUuYTQ/hlslpIGIsQKARlst/EBDjZTZikKbBnfmYQGSVgZR5bliBQkEBwmafhAgIn2OgkCRDIqB1pxSMCswJIJBxiyqxAg5EpQCvsb2b/SLA5FHhipUXQ7MFswSPbclyGAgQwhil0gwPcDwijcgQOhN6wUgxthdhCQJkfkCnApTAFWphJy3Ig/Gu7qrh3VUnDDQ5Eztoz4LHAu+Pz4jecFDYUL6Z+VC3l+BwprEseTwCFkAd44nAbzpdz2gJAGDURRkmyWT9TgMvB/pZFsGf8R2+8Bg/tmDftMAtJv5UbuwUEAF4Jw/0/wvfPXgfmgAXlUBHDqT8bqUNkt6AJ+0MB3ckAKzOzKriS8amNXSBDwAQohag1kml4PFt7rnd+k+8X5rFz4XV8rnefgV8JxaVM8jMFmAYrELiZgTjdtqaInra48RQU7UUgpJaCEKy9OY6aHZ/Y6uTZPFbnfoWtxfNY2zYQ+iih32H8lWxkCnBpzm8IQxggpSEQK3xua3dMKShpORLPpb3e6IcQZiNrn7YJAjB+Dv7oSXhw8ODCA9H5M+ozU4BpcX4Dx9fQmkTAvILALas74rN62paY8euOT7weQnVCGNtCk/MBQO30a1BwwMLBPYuOgkhFeUDBjqlRqlI2MgVojHz0XiFKLFAAK9y9tROupFSBpCaYv5VCJCFO0oLUKRArVC/8FhAOGAILcxV8vPeMmf05fuJsZAowJfhDVm5PmOagHeB7tnQ3dUpFAs60crRpsltCASoDh6CqY1CQAFxASDy0+LCBbBSniqgVAJu7I6NBWzq/JgBGwOYFeWy+ps1AC43DOZGcaaffkE1jJmhOQvN98vxJZqh85g0QSQgZad2nFpxFp1PDsC+znzCzAJcu+PGsgSjqe9+13Q0hTksI08JpTtKggfJQgiESBMCfQHXgMEASIAEhBAQ5KLiEBxYfi5Kms5k/U4CpwR9E3H+Y7Gb4dgLu2Nw9eQyf9AEu10m29qWzewFmSEdCCAckHZCUYCHw+eUnjAJT5gBnCnA58IdNLr8Ogn18bTvmFR3LCbX2Bq4E+zRePwaJUmb4VgpkPzd+dg+EI0EkIR0JEmaDi+t7h7C+czTD/5kCXILzG0Zhg8zOIN+Scf+27ua0pfXcZFihlhajgYU4OTiB9/pLkEJCSkf7AcIFSRfCcUDCxRdWnMgEP1OAS9EEw/2DDJ2uQMzozQt8dE1HTJySkV/7uVQfoAXESUaGG53vuT0X8MrAUpCQENKBkA6k40CQA5AECQePLD8Du0Y4gz+ZAkwK+ei9siyA5v/vubYLOUc0TU1oOYO32ALWqRFEIvPi8/su4qf9SyHIgRDGB4AESQkhcyBysLTDxycXXcisQKYAU4A/sczLgPvXynDftu7WAozLDIRZ+0aQ6vX3hnB+tIrBWh6/GVkIISWEIwHHgZA6FqCEhGKJL646l0l3pgBTMwFRfVWQSAZsmJ/DVsP9N6M5Lze5LZkLlPxxBAE/fLsfgAAT4fnzyyGkAyIHUjhgIUHChZDaH7h72UV0uX4GfzIFmBzrEzm/ljKwwkM7utNZm8SMHcvfT0lnbsXzJzdbiQQBpbKHnx4eBJuil1cHFmDMz2slkC4EuWCSYHKhyIHrCOxc2Zf9vJkCtII/sPL+jfBb3P89W7pTUx3qsjVbOLlT4fnTxr5jp1D2tPAzCVRZ4sULS0BCAkJqC+C4usxbuIBw8dja/kzCMwWYvBUIqr4C7v/WtUUsaHcnle7cUgHQPLen1fE88A50XMskZxDhmTOLQSIHEtoKgBxA6I2Fg5sWVLChs5z9vJkCNHF+E9w/LO7/oYD7n0yBSvL8rSrApnB8ZWIYvd5pLC3WdPE7BJgFfjvUheMTHUAg/KQVgckJodAX1g1mUp4pQDNNiHP/ZLj/ngLh4+s7G0KUZBxAwNo3cGLt423HuVHBS7AfPnsIQjr4zJJB0wEiaoa1++QikIE9ilwwHCjzP5ODnWvHYvGEbGQKkOKY1nP/927tQl6KS8bsrSxAq0CafZFDfe9BCAe3LxnVja+CdihEePrkQjC5IBMNZuGAZA6KHLBwsbidcfuSUibpmQKkwJ8m3P8D1/ZE/WfZqoxshOGTECmZ+2N95FQUaHTwLPxaGSQlFhUZNy8sIcpxEzgz4eLVvu7Q+dXwR0MgJm0NHl0/nkl6pgDps2uM+zd5/+vnudi+tK05r9/CaW0ZF0CLInnzePD8UUjhQJqo710rRnXvH6Kg/RWeOj4fkA6YJCBzRvg1JQrh4rOrqujKqUzaMwWIsz513L/J+394R8/U8/2nWOI4GQug/BpG+s/oiK90QdLBrUsmUHTZNMDS6vvjk50Y83LpFgAOco6DB9ZWM2nPFKA19y+BMPVB0GVAnhaBrlaBLwAY7DsBEEFK1yS+uWjLObhzRSmyXQSMe4QfHe/WuJ/cGBzStKiLRzZmCpApQIoVSHL/H19bxKIOt6HiXGruT93xrc4HYOD8iTDlmaTU6c5S4v7VE9EHmAj0P7zXHlkAoR1gmw69bhFhXXeWGDGnFaBhz5+A+2eFnTu6LymSO+U2KS22c8MTGC8NgaSEdF04Qqc7kMjhhmsYyzv8WNnjL8/ncaJUMILvQkHqxyKKETyyyc8kPrMACLn/iJXR3H93m8An13em5/60gjjJGX8S6c3Ntt1v9eHgSBHSYH/huHozVOfOdRWtzlbZ45PvtoFJhhRoYAWC/x/YQFlMYM4rgNWznxLc/31bOlFwxeSEFFNMdZhSJJnx7NsX8eq5dkjp6IovoTM/Sej/71/nI54vTXjyXTdkfpgcMAKfQG/XdLq4dXmmAXNSAeq5f3tpI+0D7NzR03AGFxTtmweuGmD8VhbBUppfHxvB6aEqXusrwIcDISUgHVCQ9y8dLO0W+PASFfMcjo8IvHY+p7vFGV9AkQz3EC52bs464cxxCJTO/a+b5+L6ZcUrxvLUbYmievu5f9zTBwahVBP4VV8RQriQptqLyQGJHATlsHOTCtUsMGxPHJaAdGMzf8AKKUh8Zm0enbnMCsxBBUjh/jni/j+/o/vyWh1OdWsAkSY8Hy/uuxjm/b90qgDhuLrrg5MHCdewPA4+u5pQSPTAeu4IUPacMB6A0CnWfoDruvjcxlwm+XNJARpy/4hy/B/c3nNZLE9zTD/59QFe2jeAUhVh3v+vLzgY9XSWJwlHZ34ajN+Rz+HutfEPHa0Czx8jsND0p7JoURjleWhrtjDoHIVA9S0PNfffhsWdbiSIl4D5p2t9gHdPnweTCI1VDYQXTuRAMgcETbCEaxTBwc4tbl3Z41MH/VgwTMEBAmqUHFy3tIg1vZkvMCcUoCH3bzW/CuBPrJFViyL16V4fgACUK2XMlyOm4CXK+3/+mAthhJ5Jz+IwM/zNy3NY0hH/Gf/lpIdzEzJWHRYGxyDBIOzMrMAcswAx7j+o+WV0FgQ+u6mrLlvzUjH8pZZEEgFnz1/Aul4Hi9pFLO9//wBwYkwXvZPB9IxAuB08tCWO6RUDPzhQ1RAIUifJGfULPvP+zcUsJjDnIFByGVMwHtjaibY07h+XV9N7KesDnBu4CBIOblvlmJx/3QGCifDDIwQiE9m1fQHh4t5N9bP57v0TIBIgotQWK4u7HHx0ZT5TgDkBf4BU7p+g8MiOnkuDLFPM/Wk1hoZHUK0pCMfFx1dJ7QeE7dEFnjuqDPTJAUJz/cpQnGvm53Hj0rgVOHLRw57z1eha2YJx5v+d17ZnCjBXnF+yen0G3P+aXhcfWmmgQODsNliiqC5b03KU05zmVtmkyfOd6R8ACQEpHSzpyWPrAmnl/QOnRhhvXBBgoQNaZJxgkE6We3BLvRV4+p1SOvtk/v/MujZ05ilTgKud9YkVvVvc/2PXdzd0Wqfa+S1Ja07FQvjKx4WLY5BOzgS5XHxqXd4ANRGq8A8OVa1iFxm7ors2FZFPxAR+eGgcNS9ivpIWruBQKnzKFOCqgT9oyP2DgYe3d09bW5M6BUgqVJPznxsYhoLQOf+OA+HkcPuaIqRALO//xXcn4CuKzeLB53bnBD69vi0Oq8qMl49NQIi4YrL1/p3XZgpw1cOfNO7/trVtWNadmzantlUJZLNUitN9wxCOhjRknNzujgJuWdUWy/sfrjBeOTYBQRRfksnsH0qBQbvfGQ/dILJiFYEi3LAkj7VzOCZwVSpAc+5fhfDnchpX1SlICye6EWSaqFRxcawCIRxIJ6c36UKQxD2b2uuWO/rBvvE6ixPsP7aqgAXF+E/602NlXJzww2tPs5IPz2ErcHVbgFTuH+jMC9y9uWtq2ZxT9QEmCYFO9Y1AOjmd608OpBAQUkAQ4aOr2tDhGh/A5P3/7HgZIxVV12ECAKSgOmfYU8APDoyHx4nEdyACHto6d2MCVz8EinH/puXJ1g4Uc+LysjkxxUBXg+3kxTEQCUghIKUWfkcQpCQUHIG7NhVhk/g1RfjRgfFUVocIeDAlwvvUO+ORBaD6wp3FnQ4+tiqfKcBVBX+AFO5fr/X76A09LWfsqUKcuuuYRCDsNydG8MbJCTiOhGOEXxIh+BNCszScmOuf3j8eRa4Ty65uXpjDtmviNc37+2rYf6Fa74NY1/nIHI0JXMUWIJ37X93j4pZVxSn39Qmcx+SNC1ohxtojTnJ9gCff7MMvT1UhBUGamV9IAUdqa0Ag3Lgsj6VdMlQ5BvDm2SpOj3hx5xpRt+o0Zmf3vvHQaRaWUgbKc8f6uRkTEFej4Dfm/hlfuL4LANW3JkwEwpL9/qd7fYCqr/Ds2xfx1rkaqj5CCCSJQIJMO3aCEKIO1rAR6JiFsWT33k1FOIlf9un942DmuusJ3ltwCffNwZjAVaUAzbj/gAl67PqeS2t3Pg3Jbvbrz+8bwEiZUVUC/3KyCgGCMAIvhFYCabT0vk318OSZAxaut5WUgAVFiU+uKcSO7x9XeOVYuS5YZ9+Dz2/LFOCqsgKxskdWuHVNASt7c5fG+ydLGGHtL0EBnnijP8z7f+VYBdIRcITQcIgo5PoFAevmu7hucS5mUI4OenjzbCVujazvsHNbe7ozjJS0CLPduDSPtfOcTAFmtfPbhPv/4g09k87NaZXLk3SiWznBNow6N1zBz44Mh3n/h/p9nBn2Nf0pyEAfowBCZ3M+uLVeoP/xnfFUxSUAn1pTQE9b/AL/vyMTGJ5Q9Q68da2fn2MxgavPAjTg/ttzhPu3dk4ZTk3b+gAi2j/1Zh8UC9PqXKc7/+RoWc/8wkAhs2YBm7r3eza11eH6Hx2agK84pqDByDn1MYGKDzx7cDwWEbZpVEAHxeZSTODqhEAp3P+D2zrRnpPThumTK8UnNaRZoOyJtwZCjiro9f/CkQpAgAQZZSGQAKQASBAWFCVuWx3H9RcnFF4+Vg5Rn32dWpjrrcYT75RSadDg8pd0Orh1DsUErgoFaMz9I+T+v3h9T1zAbRyfaEti59mE6wNYz01KYRr4DG+eGMXhvorB/8Lk/RP6Sgqvna4ApCEQGUtg61VaMXsIg1JiGjsW57A+genfPFvD0Yu1iAVCvRV4dFt7pgCz1fmNc/8KBGBlt4Nb1xSbszyYXL/+yQbKGp3/79/oi2Z/Yb2LBJ45UIG0IBA48gEIwGfWt6Ej0dPnn45OoFRV8euw2KHHtqdZgfHYNQWXESj4XRvnTkxAXC2C35D7B+PLN3aHpYHT1cYkGQizl1JtVB9Q9RWe3jMQ9vwJLYCBQT89NoGxCoczvxCI8fV5SbhnUzzluexFuF4kmCAi4IGUPB8dFOPQqoHjilBwCPdvLmYKMHvgD5py/18whS+iCUZP68/f7Pgpd44D8Py+ixgqcyT4Bl5phSCUPcJz706Yzybre0Wf/XAaDNrfIOUZwJIOidtWxzH9mVEfr56o1Cm4/f4v7MgUYFZagZD7N1VfH1tTwNr5+ZapDy0hDaZWIZYWZ/j73/SHhe4AGfwvjLpqbdm9rwQhELJAyWv68PI8lnTGS79+dbKKs6NeHQwKxiPbGjjDad/F3MObls6NOoFZrQBNuX9SGv7c0J26SN2VjvQmtwujVbx0eAgWOatvP4lIGQDsOV/D0UEvUqa6c1Nd/j4DeGpfFOSyF/8jAu7cUO87/PhQGeNVFXOA7TQPAHhsezFTgNmhCencf9EFHtzWNSkBb9W9uRXEqfMpErk///BGH3wWIdzR7U4CCGSpMxOe2FMKnW6b4gyc1Ae2NIBBhmlKw/TJ94zXGM8enIgJfLJ2+PPbr/6YwNUDgWL9/g33v7UDnaZSPCGPsedSMU8CRky1ACYZJ/i7N/phX6GOApMRfutqiPH0/hIYDKU45tQH+03zHWxf5Fi2hHG4v4Y95ypgK/WbQyeD8fltbbHjCYy/3zMGVtExIXlgPnNJu8THV+aa1jNkCjDjuH8Kuf8v3dgT/baI9vbjyb7OsPZIPJey2ed46+QoDp6fSMz+FB2XUMzz4z5eeW9CK4ERZJ85/F8x46GtbYl3Mp58pxQeq6zjmRk3LXGxslvEjv/V6QqODdVix+rjo2uPYgLJq6yfLzIF+KC4/8BhZITc//IuB7etaY+xozGWNOE+JAUaFO3tx40UAhTtkxbkb3/TF8uhDpxbIu0HBHGLMHAGwlNBMbu9ULe11O/9m4uQCaf+2QPjYWpEzGiYi3n02va6Gfwp4wwH52YwmBXYKMNdm9rQkbONFDVUhEwBPijuP1jl0az1RWD8Vzd06aZSRhAUon0gR82WjlYc7e3Hkz2ezb7qKex+qz8CHqHykAVRYGmZfu7Fw+MYLHnwlYKvFDzP7H299RYIt65wY2anv+TjpSPj4TGer9/jm8f3by7Umaon3h6D7/t69lcMX7H+DkpbjoIDPBC8j8xdiylCBoFmJvd/Q098Rk4UrNRZgKSRb2UxWh1v9j9+ZwBDZS9+4Wx7m0YlOVBe3bKx6iv88OAYlFJgpaBY74NNKYUHtrSFxwfb0/tK+hiOjmPW+2VdAr+73I0df2rEwy9PlrUSKAVWrPeIFOLRbcXQb0iurmkrAWUKMDO4/1tW5bF2Xj6O8VtBmuRmMTSxx40wf/L8RiL+4Y0LuqNDwNBYSkCB0LMlxOHzCrvfGUPN81H1fHiej5rZPF//f9tqF+0yOp5Y4aUj4xiZqIXH1Twf1Zp5XPPx4OZc7HhixlN7x7Sw+wrKV1CKobxI6W5Y4mJNjxPCzQiTpdIJmQK8r/Anhfv/0vU9LZ3WpMDWTWEtaKPky4qjfQCHLoxW8cqhAesmKyttOvBdGIKUSYxQsW3v+QreG6hAGQugDBzylYLPCjkCPrMuF3tPxfPx/KFxfawfWQEt2AqfXpNH0bE/y8dPDo1jtFxDzffhKR++78NXKoRBSjEe3V4ITVykBDzruaBZF+ojm/tHPfdfcID7t3WFeDygKutkOFhgUVknVk1+z6TFtxWoweE/2XsBiztygJS6ia3QK70TSUBIkBCmDln3ASIQSFIsuLanz8fGRfmGE+1XbuzEhfE4g3V4UEEIYSZqBrFvrIuPLkfhD28EXj1RNhbAB1hh//EyPrJSWwcBHwRfK67JTv3yGuB/f7UdisnEXSiKYM/mEBIeP8mzTwGCMkcOf2Bhqr4+v70d331kearAgicv4LHWg4inRKeeL+XzvvvSYYyUfbTlc8jnHbS5LooFBznHQVvOQcEVyDkSrkPISwHXEXAJcByCQ4ArCK5DkYUJrIyKW546B9xy+IWqQPolkFeC9EuQ/jiEV4JQ4/qxX4L0SpDKPB8c45e0cphR7dmBO15/FP98ohp4W2HPUg0kGPZqlRkE+kC4f8YXr+9OdVobOamN4gBpQqW4SSAtMc4MjqN/rAaSImp85QgI0u1PyETUhF3/Gzj2HGWWJq8LFuXKkzGVBseT5bITab9Br5EQ9UuNboiqE+WR7t/FQ1sKURgvJCBmNwSatT5AGve/rFPi9nUd6YGqJG+Ppl1LWgp4q0DZnhNDpsBdQDqAJKE7Pwih1wEwrU+0wBuFQJSVikTfnmTMIsb1W9dDlPxCSgsqq9DxZos2hvJjTcOIbIUwk4DTjoHCtfjE2kK0xrCN/zhzgmcE9//Y9V3hghKtBLxVJLdl5Df5urX5zNh3elhXdTkEIl3s7jhBpwc960spTOF72jxK8Wu3ilwoGXSzmCeOGUhlrYajqw4i6KhMFUIg7EYxUmb/0a6b4fsCkhh3bmhLxC2yOMCM4f4fva6nMcvTIg5QF8ltdXxSwayZ+OCZEVQ8hhQSkiQcISCkBEFDIGFVzgtL0O2ObcKmU5OCbT+XiBbHJmQj2LaQRxaBwSp4XT8fV4ho9LX/DmqKUfOB+zYVEmwZZwowE7j/m1fksX5BviFEsaOzaZHduuPRPHLcLJfo7RODusGVFBr6CM3yCKkL3olIJ0CQ1fokVDyK9/jhep+7Du4k4ZudrGdjerPXgs+hItjrpiUtQCW/DBdpKWq+gq8YWxc4Jqfo6hhitgl+XAo45P6Dqq+GvH9ismqJ+RMHtMwdMo9LFQ9H+0qmuZWGPpIEHBk0vBWm7w+iFRwRrysIviMlq2E4xQKkIRGOIFAEFW0BV3EnWMWPYYv96e+4GT4zfAX4rNutf26jlVpNmRP8/nL/ZC9yrRmTvATuvbYbqgmrUydpCYijrL0yr6kmkeMkxAqO3XNyEICZ/aVpcCWjbs+BYhBTDPKQAfYmLBA9Z2N7SklFS/ii8a/J4WLgYD/B+NjQiEMYRNGSHGAInHKvh+/rOLXn6zyhOzcUjMWa/QnRs6/mjVGX93/35g70FCQaTeDpT9TTPNzs/U0wv/3cD948h5ODNTiOhHRdOFLCkY7eHAHH0bSoI0XIEgmpZyLdEQJGSfT/wfkVdJBPr/AegRRl+QZVxXji7XF4Jk5AqgaXqnhkSw4uAwQXEG0g2QGiGoiqODs+gVePjgGqCsFVENewrN3HbavzmBC9GOciHDAUGIIEfADzixK/s9TF62e8WW8FnNkx+zfn/h+9rrs+N2uKga+64xORYiI9WdqRZUoo2KFzI9j96zNQJKAgoUhChV0fomowhFFUTJlH90a6cf2SXApXBDAzXjs4ilePV2LvGR/pxEdW5Mx1FABqM5kMDJ8If7F/CMMVE8gysO0/LVuAee0OBAg+E5QiSENBCcG4c0MRr50eMekQU/8eGQSaJu5/cYfEJ9Z31EGcOsgyVR8gcT4bFqWmRxOw+9eno5Ynhp6iiLqCXfYY81anMH56rBxjP4O8fU8xfEbq6u+vnijHA3qKddan+dIfXVmwABPgKcLLxyphzmjg7/hKH+Mrwq0r8yjmCFZJW6YAHwT3/8iOTv3jWUzPZHj8VtmhU2WNPF/h2d+ejdX4ssHRbGsSiahV3CWM105XUKoqKNapyn4sUs3YutBFVz7+s75zoYbBsgqd2cAD8FgL+C0rcxaU0df4yrGqTrlg7fwqpQGnpxg+GI4k3L6mEIM/s5EQndEQKMb9W1RMxP0rPHJdz2TVqKlPQAkncjLnsyHQvtMjuHndfLhSIue6yOVdvXclco4DRxJcKeFKgZzUrJAjtVPsCE2FulIHyaQAHOjciJhCm2tc3iUxrygjBTWQTQfhgL/+V8vQV6pBqjJITUD4ZSxtq+KaYgXklSH8MgSXIfwJwC9DFMr4yKdHUa2UIdQESHn48p77cGSoG+vmSQhjsATrPqW+ry3bHesKeO5QGbM5HWKWOMEp3D8Ubliax8YFhfoZPYUibJXcllQQong2afBYcfrr+88M4ZrOHNpyLvKug7aCi7zros0VKOQc5HMSOSmRcwRyDsEVAq40CW9SC70rtDI4RhnC1r6JBDe2mCpiQAJQQStFAEt7cljeBQivAuEDUikIrwypxiF5HJmCZvkAACAASURBVEIFSW8lCF8nxV3XXoJsK0F449g7Ng+nyp14+VgVa3rzAAQ0+aa/NLEu5t+0MIelHRJnxlQGgd5X7t9sj+3onjzmTwauWtQDtPIRbFhUqng4eqEESTrPJ1jm1BEEMj3/gwBXQHcm240I6/MJ9Y55s7hGrLg+FgVGCBeDKDArPwqIsU2RqjBO8J9Pbwcbf6PGDN9YFgXA9wkeQ2++wqfWF2Yt/JnRCtCU+ycgJxn3beu+5GS3lrk9LV63SaO9JwahWC9tKslw/UHAy+DqYNE74pTlTa1zicBNCLpGJBbCowZtGGxLFzUMU+btht9ncy8RBcSCOxMkyPlM+LuzWwEQRirAb854UExQTPCU9hl8Bjxf+x+3rSrM6nDA7GCBktw/K9yxoQM9bc6kZujJFLW3mvHrFMja9pwcgpBB0psIhT9Y6UUaEB0kvkXLH1Hsh6BI51MF3G7fY9PvNqHEbCfCRWWWYAZbs7ydHqEtgH7zc/3r0F9tC1mhl94ra8eZdZKfpxQ8UzjvK0JvkbBtkZspwBXh/jmF+zc/zSPXdU8pv38yJYyqST2AHS22UyPOj0zg/EhFr/BOAiRIpzubQFeY928WukAAg4IfwFrji1L4dPv72Itd28/Xa4sV9VURxNHMGcLW8XbkN1CWJy9sD3sXAcBvztQwXFGomVQIX2kLUDPUq+ejrvlupgDTpgkp3D8zFhUFbl/X2bQvj/1cGqSxWZ9knfdkFCg431vHBs2MLyAkhQvdhcucQpjZnUyhC8WZLET1VLC6VMcmg8TsnnTmYzN/eLiK96GzskHBQTlp3BLUqIjhwsbYDfSY8OrxivYDfJ0LpJjgK+0H+AzcuCSHNidTgGmHPXXcv+FFHtrepR1LXFqnNsMahnuVYFgm2ylOKcY7p4bN8qYILYAgEa7xK4xFCCBP4AhTonUipcz8MUcYccXgpjiuHuaQpQhh3g9FvgKgcNzZgZuWt1sfpBXhp8dqUAx40F3naorhKcBXjJqvJ6mbl+czBZhW+JOW92+U4eEdPVNmeepYIo7n08c80RQLkiZ0754bQanq6axPCpLfJIgIjpQm4xORBUhLc7aWaBL2Gl/JxDskZn9OL5VEiP+t7E8TM7EzQMlUg0WlkAoHcT1WdLm4pkNEzXsJODrk4eSQD89H5AArGCXQ2y0rclkc4Mpz/4wdi/PYtKiQ3pKG47LQrGa9daSsyTHm8Xd/9h5e2HsBSkhwkPsDYXJ9pLUKJFDXRZOmJ3y0stvB1z7cHk78ylxcUDx/8KLCX7+lwFQEuAjQQmyY7+Cr1xWNZRLGRyEoz4WUjFuW57H7QMXcNM1G/ex4BTvNUq2RMjKY9Oes7nGwqChwYVxlFuBKcv8P7+ielKxeblF7K1ZoeKKGl/f16QYixjEMmtJ6TBFUYGWYk8TmK9SmYTtysYrTIx6qPqOiFGpK6cee/vxV3Q5cAXgeo6aAmg/s7/MwXCHUWG8+S3iQYNJJbx9alk/iM/z8ZFk7vaEzrB8HVsFXjJuXzz4rMKMUoK7s0Yp2EgEuAfdu7U7F+K1yd1oJ+FRZoef3nEHFBxDLoI8eR5DryieMvX66pnN0AkgSpkjozw1pSoPrFANvnq9pft9EA3zj2PoAOvICmxfkEObsMTA4Abx9oWaoUISskFYKXS5509LcrEuKmKEQyA58RU7bpze2Y15RXzIHOLiBY9iwWqoRRsLUopk/P3wRS+YVIYUESxdCChDppldCSO0Mm6iWNMueho4wbLaHLOxPsYhwzLdJU17zoJAjrLimGPkIygezp2kbKDyyPYe2nAewB+IqiBU6MY61bXkQ+xjhdgz4C0AkoJQu3fzw8hz29fvGH9NezC9OVLFxvqs7SMOaeMzjjhxh/XwHhwe8TAEui/tHOve/04I/U8XsdT5Bsr1l4vi6diNm9icAfSNlLGx3sGzzfLTldNJbIe+gkHNQcCRyrkTelchJoXN/pM73caVOj3CDvB8Z5P/oHKAgJ0gQ1ef+pAhcakMs5ekGWGpC5//4JYj5JTywXDe7ihpfjYcNsV6s3ok+LISvGFIQlAK2LHJRcMqY8KLJ5LfnqyhVi8g5ZDFuHLOeNyx2Z5UCzDwfoAH3v6BN4Pb1nZfFqjajTZOsUjOf4s3jF02hu8n9MdRnUOguhUDQ+T9E0nb6QwrHT/YPQikdyJPVa4nFNaLzGBCm/FiZY9QXKKBDtXWooIB3a6vhh/BIQyJJAtctdq2VwzXs+c25qkmrNtDHxAMCWnTTAhd5mfkAlymlCvZq7wSF+7d1hSWC07ElV35PrgzfqPszE2PvqSENcWRU+B72+hF2AyzoGV2YmmDE1smoX7s4EQRr2HuUkbo0S9ScMNHtLb4wk+4UZxThsNoEDxr6hEluxuLctDRvFI1DbX39VBWer5UhEPpgqyl92NaFbqYAl8r92xjHLtp+aHv31Cq6LtPpbXT+I+dGMV7xDfcf5PoYJZBC5/CHQS6qC3AlLYJtCUQCntXFBJP3LGG96qK7Sb7fjgMY/Pf8wPrIcQbgg4wyEFb0OJjXJmOO1rEhHxdKvnG6I4e4ZhxwjxnbrskU4JJNAIHj3D8BWxbmsOWatjphaLZNVcAnywL99sRgBH3M7E/G0RUG9khB0Vq/FO/2LChWKBlbtTKpGZzwQRqFJOLPqVi0FxxZUYIVBGMfe0d68MNjHfCJ4ENnewallZ7P8H3GDUuceDkngDfO1uAroGasRQCHgtygJZ0SPQXKFOCSuH9wXBlYhdx/o3TklC4njZmTBu9PrupYFwlmYKLm49DZUdPgSoSpDoJM6xMK1gBLYPwkXKH6zE8i7fPUzej29XM858dmg5JNsDi0AkEOUJT5GRzz/ZOrsa9fJ7opFUwChJqv/68xYcfifJ26vXW2aoTdbAYOBblBNZ9nDQz6wBWgYctD86M6BNx7bU/LReout+Y3WVOcTJVgAO+c1Hn/wnJ8pUmCg6E6gwxQQ2iGsi8ofTHtsNeP1QzLzvhMKnJa7n3ow1jWM8z7CZSCgkZi+oyeDzx5cjUmasD+C54JZpnAFhgetDB3uIRV3fGlZocqjPeG/LBRlrYacSuwcYEzK2ICMygOYKU+WPkpt68vRtx/E5oy+TigLFUKjTlV1igY/+HlY9hzuqTXciEBJgkmAcUSEIHYBR0hRCztOc2JvRIC0pkj/MGH2gEWYHQA3KlTm5nBRHj3Yg3PHKhCEVBTDkDA2+c9bFjghtaLlQnskV51ePs1ORwfLsc+Z8+5KhZ3FMDGf4hNRMwoSMKyLolTI36mAFPl/jVK1mb6oW3djTMfm/X14ShYlho4a/H+ZM3wyYFx/PbUGBQLnfujCL6QwaJHUCyinj/BhzSLAF+hGsJKGThykbEyNmub6jJFWNEtAeGjpoSJ9BLeHfIx4REKrmaChF2LzIx18xw4Qju6wTg04OHWVQyHyEAnjnqpmp90fa8z4xVgZvgACe4/KN7oLQjctr5zUu3LW2H+qUKkpEV59rdn9apaJLUFEHr2h16bJiorYa0AjA9u23OhFpa4MFnur/HCNy3ImfuhoxU+E/b2+SbXHyZfKcrzEQRsmBefK6s+cHjA05DHSo8IMkQ9n7G8W8Kd4TWHH/zlNeH+793aCVeKuLMwyYKXVgoylWQ5ZsaP3u7X8MbM+qEiQIDhgCFDSMQk9P8QH8h2aEChrMjAM2EgCsEnDd22LMqZii8Rft+9FzxT6K6dX485dGg9BWxaUO/U7u/3wiBYRItymDTHQGiJMgh0Cdz/A9t7mqY+NIoLoIVFmAwKsY9/7b1BnButQpGj11UUUs/8pIVeBd3gYpGsD84FrAE40KewfbGjBd0k5QUsz6IOgc6CxEglgkhnRn1cnGB053XFl1LaMgcJdYs7BTpyhLFqdNfOjPgYLiu0ORHfFE1AOkViZY+DI4N+ZgEmzf0bpmLj/By2Gu4/6fROZmvmNE+qC4S1PbOnz+T7656fTAK+6fvpm7VWFAgqhBsisXz1+7/t6ffD+gSlpL5OIuOrCGyanzO+StSndF9fDTUWJhJMqKmoAqymgPUJGMQADl+MWwEbEnk+0JsXaM9RpgCT5v5Nr5oHd3SnRmLr+NMGfX1aQpzEonl11sXsxyoeXjowGAp+BG/IsgASLKzXZ8B2eowxMMEaogmjGAYO+SBsXOiYqq9oxccD/b5JawBqSsFn0n6ASXlY21sPGI5c9EIaNKgS83xddxAow4oumSnAVLh/CZP3j8nz9pdbD9AoOe7F/f0oe9B4mqS1OVAszYwqoZQAKwlmMWO2vReU1QPUWAHWxTsdOQeLOkQo/CDCcIVxZpRNzx+KEt6MH1B0CQuKcZEZqTD6Sgq1QOj94HijSL5uYEyZAkye+791bRHz2t2mXR+SM77dOCpYRI7o8leM+dGevji0ERHUYWE2MFhAb1Yt7Qe9vdPvwScKuzj4rL+DbyzBhnm6ZXq06h5waKAKD4gyPW1mR3EYFLPH0UHPCoYhDKoFEMoRQG8bZQpQx/1zkvvX8Of+a7vrHdYWPkDLyG6DFV2a5f6cGprAG6dKesYXenZXytCfIigcF3Y7txm1jdUY711U8JQpfQShBhiGh7Cyx4mCdWZ3dMg38CUuxEEniKWdEjIhy6dHfFRD2KOZo5qKU6PXtMtMASbD/XcXBG7f0Nl0EbpmM3ZDW3MJ53v2t9r5ZQNzQsFn4wwHvgAHx8y8bX+/Z9qbAzXPtDlXAr4CchJY1iFgJyxVPeDksB86tHb3h6AFyjXtcbGpKeDsqK8tgCmQCXODDBzqKYg6xZm7ChCr6Ytz/3dv6UJOipYCfLnr+rYOnDF+9M6AvjIRrPAirK5pdr9/xKtbZtA4Ouih7DE8wwJ5zLqrGwM1RVjdW8/sHL3oWY5sAIc4zP1ZmuLUnh71YxbA86N4gOdrizqvbeZFxd7XOEA998913P99ZrG7uvcm2pEnUxXqSnwTfkLy+DRWyS5A+fXxYZwbroHJCVubhEscmQ4KWlHi3P9M65LsMfDuRR/r5lOMFVPm/i/ulHVpDmfHfJQ9DtcFCFqsBBNDT0EgL2GaAugxMK5Q9hhSmKRT8x5l4K5vFKBvhrVN+YBUMp37XzfPxbYlxUuDMC0sRCvIk6wH+OHefquGKrjSoOeP5UxYGjdTW4QfuuiFjIxnVXB5Jkt6WWd8RvcZODlisj19hKxOwAb5CljUXr8o4dkxP3Saa348RUJDLppx5ZLi/Rb8Ztz//dt6Jh24aglhWmzNfIbxqo+X91+01vsSJu/HKAEoEfWd2eNCSWFwQoWQpBYKqRbUZSnMzqkRDzU/4veDqrFAsBe214tOX0kvpu0ZiBXEECI4xOjMi7mpAJPh/u/e0j3pZLWW9QAtLEQz1uilAwMYryGO+00maWi7gmuaJYvEaarSCGXI02tB7c6Luua2gxOMUpUjP8AwQT70/64ktLvx7z5eY4xU2Mz4ltXgiE7tyNGM8pQ+AHVMtDw0+P+W1W1Y2OFeskBP9fVm47k9fUbwzTUYulNDICvAYDm/M32FlGNDEbNTsyu4TPBqcUc9pDkz5oeFLjUVHKutgO9zqlM7MK5M01yEMQHPSpIDgLwzxxSgjvunSMID7j8Z+b3SkKfR+88Ml/HGqTEj+DrdmdmGQGS1IZk9fdAmPMa5MRWVL5qSxprB6YtSePoLJRUpS4jpg1QJoCtfP5sPV1RoMWy/IWKUgDaX5qgFIA47G4fZ66xx4Sc2dEXacgnLlrZymie77Olzb/cZ6CPDxa2DGZ9tdWaKr989C8apES8MbIURXl8La05qeJKENKOVyHewBdlnTQUk3+MpYKQSKVpYNhlaEoYrqG6NtLkDgTjZSVPhjk0675+bRG6TW51PMNWCmVQnm/Hc3gFrNXcRpjmzXcQbsD+zzAqcH9ONcz3f6umpgv+B+UWRbgVMYUzNqv0NFKEjX//9RyocxQ+C3CA/SpTzFM+YQpkrfhlki14D7v/ebT31sGWKC1606vqQ7BqR3AjAmydHcHa4Ggt4RRO9eQ4c0qKzbfgMnB1TGvb4kR8Q0JY9BVH3rYIFtmvWmgA1P5rR85LqIrwTtQj6hFbAMEiB9ZEzxAS8j+5IOve/qtvF9iXF+sDWFNf1TQayUmf8JudXAH68ty/i/sM0YYH57RK3rW2Prr5J0cvPjldwbkzh46tydY4lAIxVGRcnFH5zphoLPiWHK4AHt+h6iJ+frKbW1goCHt7aVvf8uTEfJ4Z99I+rWAELAJwb9fHRFTks7ZQ4NFDDsSEfinX97qoeiQ6X8C8nqzFIM1RmFF3CnRt0p7h/Oqp7hvrm+ttc3U/o1pV5fGSlPvfAhMKJIQ+vn67i3UE/WmfNCqjRDICPzvsh+HVlXWGPSoV7r+1tOaOnCXRad2dQY4Fvdf6Jmo+XD1wM2Z6AAgUIf7VzMT6xtq0li0QEvHa6hv/2mUH88EsLUs182dNU4YWSwv/w4yH83BI2e3x/5zzcv7kAMNA/obD5O+frhPkPbiriL+7qqfteIxXGeI0xVlX4+j+N4JmDUUeHvEP4y3t64Epd1/ux/6cPkoC/erAXrokI/3fPDuL7eyYsSKOwc2sRf35nD3zF+H/fcvGnPx2FMnk/113j4v+4oxvreh0sspS+5jPOjfl46WgFX3tuCL6KN9IlmjwzNyshUEPuH9HSQXdv7UmHJVNdx/cyfYCfHhxAqZrO/WthirbxGqPgChRcgXEP4fNlT5t/QRo6FFyBqh+9PlZj5B2BlT0OfmdZDq/+/kJsnF8/B63okrh5WQ55RyDvCrS7hM+uy6dYCULeiV9HxWMsLAqs6XWw/Zocvnt/L/7xsfmx36R/XCEnBYYmlFnuiDE4oZBzBNpzArs+0YX18yJBLtXYNP0l5BwR4XoFrOySePW/XoRbVuSxqENicMLHiWEPZ0c9MIAV3Q4e3daG7z3YW+dIqxnAHrxPECid+795RRsWmrz/5IzeaomjNAPQbChzrLLer6z3P7+3P879I+L+/+Dpfty4tBDmBH14eR5/9mkdtX71eAV/8cux8HPeOlfFEmsWPDro4X/+ybDG4IqxoCjxXx6ZB9cshv2lHUV84+WR2LU+sKWAJZ0Cns8o+4yeNonfu7Edu/eXG36///jaGF5+rwJJwOoeiTs2FHDXhgIWtkvctaGAezcV8KyxBMqCkZ6qnxzW9jr4zt29uO+/9OuucQxUvAivBdmeDMa3Pq3Zu4rH2Huhhv/1xWEcvuihKy/whe1t+Mr1RSztdPC7y/O4brGLX5+pzSi/yLmys39i7U4VsD96wbZ7ru1uKOFpfXxifX5SoExTBUn4CIEJVgycHynjNydGo5RnBEEvDYGGK4yX3iuHzJDdIeEXJ6t46b1K7Lsv6YgeV32ue/2z3+vD7sfmY15R4oYlbh2u/+r17cg7AieGPIxWGdcuEti2yMW6XtmwwHykomKf85/eGMfXbm7Hn36yCz1tEt/8RBdePFKvQJ7iGAzxFMMRhFtW5PCvP9SOf/+rkhZwP+5Me4rxmXV5XL84F0Kru/6630p28/H2+RoGJxh/9ukuLO2S+PJ1Rfz6zPCMUoArT0ZZyx1FnWsIHXmB29d3XXI6cx2LY1WBTbUi7IW9/ancPzfh/i9nLOmUKJhg0Eg57gl/eFkOS0xy2tFBD997qwTPZyzpkNiZ4vA2G//x9VKoML0FUR/t5YilCe7FhZKPs6M+ugsC/+Yjndi2yDHWq/59H1uVx8J2iYqn8NXdAxiYUEm7j//z56P4k1dG8O9+NoJ/3D8x45ix980JJti9ChU+tbETOUdMGtLUrfKYtBgp/nYs564JxHp+Xx+CtJ7G3D9Scq1bj7W9Dr79ma7Q6qzpdXD76jyKrsDpEQ9P7osLxZeuK2Jpp8R4VeF7b43jl6eq+NrNHVjZ4+CLO4r481+MwZtkRrFiXdxy01Kg4BCWdUocslZvYTPj26PqA0/sHce/vrkdq3sc/OU9Pbjzr/sT59UUaNAsa3CCceSiH0Kroku4a30hPP6dC/oz35uB7VGcKy37SMQBgkjwPZu7URciaAZpEvUAk/bAW0CsPadHcGrIM7O/jHJ/6rh/cUnc/4J2iX/7sa7U1/7DayU8fSCCJd15wh3G2T1fUnj+3TLOjSm8N+RjZY+DxR0SH1uZxyvHKpP+/ONDWvjac4SlXQkFCLB8YuL4y9dG8ZGVOXx0ZR43Lcnhf/loJ44P+THFqilguSmMqSqO0bTf+mQX/vDDHfB8jv0cJ0Z8bP7O+bkCgTjOD7JZEZoZK3oc7FjeHmVYBlCFphq5vXRWKHj8/Dv9Yd4PE4GF1eOzQd7/VMaFko9jg57ehjyMVFRIEf7Zp7tjVOmd6wshjTivTeDha9vwtQ+34xcnK6h4Ctd0SHzluuKUPn91j57jSlXG6UQsQSHKC7J/tZoP/I8/HsLxIQ8deYE/uKkdnVbEN+j/GZzPFRTCNu0vaKas7DMqPkMIQltOYKis5pgFIEvayEg4Me7e3B1VQ9qH8qWzPq0Wwk57f8VTeOXgoO7tE872VubnNOT995UUPvc3/SGOXt4lsfsL87G4Q2JwQuGz6wr40WFtBX7/pnZ0mXz57oLAd+7urTvfbavzWFAU6J9EZZUkYE2vFswJr14BwFpY8zLOx9d8xp7zNfz7X47h8ds7saLbwR99uKPu/Pv7Pdy1EegpEFZ2S/zylH7+m6+M4KWjldDyfOfuHizvnpkLkoorJffR5M91z99p8v6b5fcnLUCrRldTbXuiGPjnw4MYrVHY5zMu+CYb9DLz/ktVhWNDPo4N+Tg54uMXp6rY9fIIlGL0tgnctFSzQJsXONi0QAvJhTEfx4a8yHIMejg/poV3UbvAPRsLk/rsf/uxTmwwcYb+cYWzY/UYvOJpTt8u0w7SI77zqzH88lQNzBzCHXv88/EK+ks+2lwdO1hoconKHvDi0QpePFrRK0bO4KyR91UtGcCHlhexuNOtoyUns65v0+Mv4XzP7RswfT0pqv4KEzYM5k9wqdMRuzk17GO0yuguEFb2aMF6eGsblhoY8cKRMnYlYgM3Ls3h/763B71tEr93Qzu+99Z47PWegsDdGwqQpBen+PgqnZbQ5gr0lXx8/Z+GUU3xQYPgVNJ5DrY/+tEQnv/yAqydVy8qzxws4zsG56/tldj/R9fg958exNkxH4MTjKWdAl++roi8pEsAj1ebAhhK5q4tXcmKyFS3oU5eg4XjLaeZUrIsGp0vCYEujFbx6xPjGv6w1c05iAJDB3piLNA0jfMlH6MVhe6CwJaFLnISeGx7EY4gnB318H9Z9GXkS5TRP67Q2yaxpldiR2Ihuq/d3IH//kOsK7VykWEfNfGBF45UGv4sXpP7fviih3/3zyP49me6Ma8o6xTlo9/twyv/aiHW9DrIO8DfPjzPJNDpHKEF5j2lqpqRawVc8ThA2DWBtCP0yXUdl3SeJASyn0v/3OZO80/2DeoGt9B9PRVFM7+mPy0fIMFUlWuMUlWh4nEdjQhohqSnIFCqqhDT2+NAv4eKD4xVFG5ZnsO/uUVDlVJVYbjM+MWp+vyg0Srj6f1llKoKi9olfu/GIsqevo7RitJlpUJ3gDsz4uG9QQ9vnq1i598N4LEnLsbu47w2gdGKQq+p6GLruflFUXdf/+rNcTx3uIyyp1Mt7InlxLCPB/52AC8dLeP0iIe8Q1ja5WBFt4N2l3BuzMf+vhr++MVhPGpdx0wZhMdP8vSfNE7EB6LVXQCuW5KHgI6vB6vARMlxFsgIVoybrNfbMndC001BXe875yYwOKFM09sAAkmrED5qGov4lUEQ8DmDw398uJya1fm7y3NY1C7w5tkaTqbMfAuKAh9ZoaOozx4s456NBQjSmZ/NHNz7NunP/ZcTVQyWVXgd9jg35uP4kI/hikI5ZdH2665xsapH4kC/F9KiWxY42DDfwdFBD3svpK/0fse6PPIO4cUjOhs0BiUEcPOyHG5a4mJZl8RIhXH4oofTIz729dUwVJ6ZZUNXXgGIw/Vrw+U6OVoBMqgKg+m+GbRIjDDOZV6eEXxQIMxstTexcH9Ag5pFI2DygqxFf2dN5Vc2PmAfIJyI7Vz+QIACgWLNshCrcC1dNq9REvxfrjraq8rYVQnBel4krCiwOSbMq8iEP1OAywoCkOW5shY2tnIzSZriiGipdLKhD12mJlqWgMPziijSSxy2OowpyFTTTbMxWxWA+Mo3tyFTfUVa+MPAkjBCpsBEIJOfEF0NX74OxnqoI1wNJXpsnN3AKoXCT7Ou5jcbUxYQdgCMA2i/olbAwAmGLqyIpTYTAEizjm0kcMTTN/0yJeokbQc3llCXFP5pUcNszNwx7oB4FDz9ClDXqDZUgugACmAJGBAi5vDqvPzpvBqLwrGWZee0ZdhnQb/PbEyLARh1wHQa4MVX1hewnFlrdg0DTWwv/xJPn5g+CEaWLlgzPKXl+FM288+FwXTaAfFBMG66UmyQJdYprE46xGGm6YXenK6TDX2FTPjnigU4KEDizSuuaLEtZXVzStmmc/X0SZ27vpViNq52BRBvCoCfye5ENuYoBnpGYNfyQyA6kN2MbMyt2Z8OYNfyQ0Ho6ensjmRjjmnA00AQe5Vid3ZDsjGnhpF5rQCPL3kdhBeyu5KNuTH54wU8vuT1SAE0Jvrjacg8y0Y2Zrr0s5Z1PSIF2LX8LRD+JrtB2bjKZ/+/wa7lb9UrAAC44usAlbK7lI2rVPpLWsajEVeAry89DsFfyaBQNq5K6CP4K/j60uONFQAAdq3YDUG7shuWjatqCNqFXSt21yOitMFM+Mbpvwf4kezOZeMqmP2fwDeXPZqWZZmec0zE6Fn2VYCeyG5eNma98Pcs+2qjFOPmOZfMhG+e+d+geNesWRI9G9kIMT/twjeW/mmz/PrJCfU3T+6ET98DuD27sdmYBcJfguSv4hsrnmrpGkzqPtK6kgAAAI9JREFUfN9Y8RRy4loQfT9jiLIxo2d9ou8jJ66djPBP3gLYY9ep68H8bTA+m93wbMwc2ccLIPpjO8h1ZRQgGH9y9kNQaieY7wfz5uwXyMb7L/R0AEQ/gBBPBbk9U9eb6Ri7Tm0E6D6wugFMm0C8DEydAIqZ85yNy4Y1wLhu3kCnQXxQVzHyM9i1/NDlnv3/B7mUMsj3w6NxAAAAAElFTkSuQmCC;" parent="6pHxYC2a_yhWoSQ6z3BF-74" vertex="1">
          <mxGeometry y="81" width="40" height="40" as="geometry" />
        </mxCell>
        <mxCell id="6pHxYC2a_yhWoSQ6z3BF-76" value="" style="group" parent="1" vertex="1" connectable="0">
          <mxGeometry x="846" y="440" width="240" height="121" as="geometry" />
        </mxCell>
        <object placeholders="1" c4Name="A Trading" c4Type="Software System : IOS/Android" c4Description="使用主体 : 金融/数科/CAP" label="&lt;font style=&quot;font-size: 16px&quot;&gt;&lt;b&gt;%c4Name%&lt;/b&gt;&lt;/font&gt;&lt;div&gt;[%c4Type%]&lt;/div&gt;&lt;br&gt;&lt;div&gt;&lt;font style=&quot;font-size: 11px&quot;&gt;&lt;font color=&quot;#cccccc&quot;&gt;%c4Description%&lt;/font&gt;&lt;/div&gt;" id="IzBpSC75Lcns6cSvXki5-6">
          <mxCell style="rounded=1;whiteSpace=wrap;html=1;labelBackgroundColor=none;fillColor=#1061B0;fontColor=#ffffff;align=center;arcSize=10;strokeColor=#0D5091;metaEdit=1;resizable=0;points=[[0.25,0,0],[0.5,0,0],[0.75,0,0],[1,0.25,0],[1,0.5,0],[1,0.75,0],[0.75,1,0],[0.5,1,0],[0.25,1,0],[0,0.75,0],[0,0.5,0],[0,0.25,0]];" parent="6pHxYC2a_yhWoSQ6z3BF-76" vertex="1">
            <mxGeometry width="240" height="120" as="geometry" />
          </mxCell>
        </object>
        <mxCell id="6pHxYC2a_yhWoSQ6z3BF-77" value="" style="shape=image;imageAspect=0;aspect=fixed;verticalLabelPosition=bottom;verticalAlign=top;strokeColor=default;align=center;fontFamily=Helvetica;fontSize=12;fontColor=default;fillColor=default;image=data:image/png,iVBORw0KGgoAAAANSUhEUgAAAMAAAADACAYAAABS3GwHAAAgAElEQVR42u29aZAk13Uu9p17M6uqq/fZMPu+Y2awiaBAEgS4YiPWAQiQNMl4kmX7WVTYzw4/hSNocCgx9IJ2WBF61Hthx6MV5hP1tAAYgQAJgoAFgBTEBSABcDCYFTOYfevu6bW6a8m8xz/uzcybWVlV3TM9QPd03o6MrK7KysrKOuee73xnuYTpGLtObQToPrC6AUybQLwMTJ0AigATspGNSx7EAMZBPAqm0yA+CBJvAvwMdi0/dNlnv+R3/snZD8FXDwH8AJg3Zz9UNt5/3aADAD0NKXbj8SWvvz8KsOvU9WD+NhifzX6BbMwcZcALIPpj7Fr+1pVRgG+dWYWa+hYYX8pgTTZmLFwi/A1c8XV8fenx6VOAXScfgqL/DHB7dpOzMQsUoQTBX8GuFbtbHSmavspM2HX6cSh6MhP+bMyewe1Q9CR2nX4c3BytNH7xz7kNQ6e/B/Aj2Q3Nxiy2Bk+gZ9lX8T/RxOQtADNlwp+Nq8QaPIKh099rZAlkutL8N4+D+Q+zm5eNq2Rci5+NKbzy5z9tDYG+eXInfHoiY3qycZVBIYbgh5OOcVzIv3VmFarqnczhzcZVqgQl5MS1NkUa9wFq6luZ8GfjKvYH2rWMp1mAXaeuh8IbGfTJxtUPhXBjEDGOLADztzPhz8YcsAKkZd22AH9y9kPwvNeym5ONOTMc52Y8vuR1bQGU2pndkWzMqeGrhyIIxHx/dkeyMceg0AMaAu06tRGKD2Y3JBtzbgjaJAC6L7sT2Zibg+5zwOqG7EZM8nbVm1G0fGo6eTWe1EXFnuTsZ2tyP9UNDpg2ZbdpKsLPcYEk67nEbSTiab+Ixtm9FH1++LkUXnf2C6cpAG1ydAF7di9aCz+nT8cMEAFgjv5hWyGm1wRQ8LnB5zABRODgM8n+TL4CZuhq+mF5maO7N2QaMCnhZzO7sjW7k5H74BilYvJGrKZxwrJOrELNAzODiBKGiCwLFV5mNuI3tNMBUMzuxCQwvy38kYiFMz+BQwkj5kmA96lfTXReAhNHFsYIP1sWiQMrEcdq2YiPopOlP0zC86wTfjYwm0HM0XN6ajZCaEEhuvxLSFoBUuYTQ/hlslpIGIsQKARlst/EBDjZTZikKbBnfmYQGSVgZR5bliBQkEBwmafhAgIn2OgkCRDIqB1pxSMCswJIJBxiyqxAg5EpQCvsb2b/SLA5FHhipUXQ7MFswSPbclyGAgQwhil0gwPcDwijcgQOhN6wUgxthdhCQJkfkCnApTAFWphJy3Ig/Gu7qrh3VUnDDQ5Eztoz4LHAu+Pz4jecFDYUL6Z+VC3l+BwprEseTwCFkAd44nAbzpdz2gJAGDURRkmyWT9TgMvB/pZFsGf8R2+8Bg/tmDftMAtJv5UbuwUEAF4Jw/0/wvfPXgfmgAXlUBHDqT8bqUNkt6AJ+0MB3ckAKzOzKriS8amNXSBDwAQohag1kml4PFt7rnd+k+8X5rFz4XV8rnefgV8JxaVM8jMFmAYrELiZgTjdtqaInra48RQU7UUgpJaCEKy9OY6aHZ/Y6uTZPFbnfoWtxfNY2zYQ+iih32H8lWxkCnBpzm8IQxggpSEQK3xua3dMKShpORLPpb3e6IcQZiNrn7YJAjB+Dv7oSXhw8ODCA9H5M+ozU4BpcX4Dx9fQmkTAvILALas74rN62paY8euOT7weQnVCGNtCk/MBQO30a1BwwMLBPYuOgkhFeUDBjqlRqlI2MgVojHz0XiFKLFAAK9y9tROupFSBpCaYv5VCJCFO0oLUKRArVC/8FhAOGAILcxV8vPeMmf05fuJsZAowJfhDVm5PmOagHeB7tnQ3dUpFAs60crRpsltCASoDh6CqY1CQAFxASDy0+LCBbBSniqgVAJu7I6NBWzq/JgBGwOYFeWy+ps1AC43DOZGcaaffkE1jJmhOQvN98vxJZqh85g0QSQgZad2nFpxFp1PDsC+znzCzAJcu+PGsgSjqe9+13Q0hTksI08JpTtKggfJQgiESBMCfQHXgMEASIAEhBAQ5KLiEBxYfi5Kms5k/U4CpwR9E3H+Y7Gb4dgLu2Nw9eQyf9AEu10m29qWzewFmSEdCCAckHZCUYCHw+eUnjAJT5gBnCnA58IdNLr8Ogn18bTvmFR3LCbX2Bq4E+zRePwaJUmb4VgpkPzd+dg+EI0EkIR0JEmaDi+t7h7C+czTD/5kCXILzG0Zhg8zOIN+Scf+27ua0pfXcZFihlhajgYU4OTiB9/pLkEJCSkf7AcIFSRfCcUDCxRdWnMgEP1OAS9EEw/2DDJ2uQMzozQt8dE1HTJySkV/7uVQfoAXESUaGG53vuT0X8MrAUpCQENKBkA6k40CQA5AECQePLD8Du0Y4gz+ZAkwK+ei9siyA5v/vubYLOUc0TU1oOYO32ALWqRFEIvPi8/su4qf9SyHIgRDGB4AESQkhcyBysLTDxycXXcisQKYAU4A/sczLgPvXynDftu7WAozLDIRZ+0aQ6vX3hnB+tIrBWh6/GVkIISWEIwHHgZA6FqCEhGKJL646l0l3pgBTMwFRfVWQSAZsmJ/DVsP9N6M5Lze5LZkLlPxxBAE/fLsfgAAT4fnzyyGkAyIHUjhgIUHChZDaH7h72UV0uX4GfzIFmBzrEzm/ljKwwkM7utNZm8SMHcvfT0lnbsXzJzdbiQQBpbKHnx4eBJuil1cHFmDMz2slkC4EuWCSYHKhyIHrCOxc2Zf9vJkCtII/sPL+jfBb3P89W7pTUx3qsjVbOLlT4fnTxr5jp1D2tPAzCVRZ4sULS0BCAkJqC+C4usxbuIBw8dja/kzCMwWYvBUIqr4C7v/WtUUsaHcnle7cUgHQPLen1fE88A50XMskZxDhmTOLQSIHEtoKgBxA6I2Fg5sWVLChs5z9vJkCNHF+E9w/LO7/oYD7n0yBSvL8rSrApnB8ZWIYvd5pLC3WdPE7BJgFfjvUheMTHUAg/KQVgckJodAX1g1mUp4pQDNNiHP/ZLj/ngLh4+s7G0KUZBxAwNo3cGLt423HuVHBS7AfPnsIQjr4zJJB0wEiaoa1++QikIE9ilwwHCjzP5ODnWvHYvGEbGQKkOKY1nP/927tQl6KS8bsrSxAq0CafZFDfe9BCAe3LxnVja+CdihEePrkQjC5IBMNZuGAZA6KHLBwsbidcfuSUibpmQKkwJ8m3P8D1/ZE/WfZqoxshOGTECmZ+2N95FQUaHTwLPxaGSQlFhUZNy8sIcpxEzgz4eLVvu7Q+dXwR0MgJm0NHl0/nkl6pgDps2uM+zd5/+vnudi+tK05r9/CaW0ZF0CLInnzePD8UUjhQJqo710rRnXvH6Kg/RWeOj4fkA6YJCBzRvg1JQrh4rOrqujKqUzaMwWIsz513L/J+394R8/U8/2nWOI4GQug/BpG+s/oiK90QdLBrUsmUHTZNMDS6vvjk50Y83LpFgAOco6DB9ZWM2nPFKA19y+BMPVB0GVAnhaBrlaBLwAY7DsBEEFK1yS+uWjLObhzRSmyXQSMe4QfHe/WuJ/cGBzStKiLRzZmCpApQIoVSHL/H19bxKIOt6HiXGruT93xrc4HYOD8iTDlmaTU6c5S4v7VE9EHmAj0P7zXHlkAoR1gmw69bhFhXXeWGDGnFaBhz5+A+2eFnTu6LymSO+U2KS22c8MTGC8NgaSEdF04Qqc7kMjhhmsYyzv8WNnjL8/ncaJUMILvQkHqxyKKETyyyc8kPrMACLn/iJXR3H93m8An13em5/60gjjJGX8S6c3Ntt1v9eHgSBHSYH/huHozVOfOdRWtzlbZ45PvtoFJhhRoYAWC/x/YQFlMYM4rgNWznxLc/31bOlFwxeSEFFNMdZhSJJnx7NsX8eq5dkjp6IovoTM/Sej/71/nI54vTXjyXTdkfpgcMAKfQG/XdLq4dXmmAXNSAeq5f3tpI+0D7NzR03AGFxTtmweuGmD8VhbBUppfHxvB6aEqXusrwIcDISUgHVCQ9y8dLO0W+PASFfMcjo8IvHY+p7vFGV9AkQz3EC52bs464cxxCJTO/a+b5+L6ZcUrxvLUbYmievu5f9zTBwahVBP4VV8RQriQptqLyQGJHATlsHOTCtUsMGxPHJaAdGMzf8AKKUh8Zm0enbnMCsxBBUjh/jni/j+/o/vyWh1OdWsAkSY8Hy/uuxjm/b90qgDhuLrrg5MHCdewPA4+u5pQSPTAeu4IUPacMB6A0CnWfoDruvjcxlwm+XNJARpy/4hy/B/c3nNZLE9zTD/59QFe2jeAUhVh3v+vLzgY9XSWJwlHZ34ajN+Rz+HutfEPHa0Czx8jsND0p7JoURjleWhrtjDoHIVA9S0PNfffhsWdbiSIl4D5p2t9gHdPnweTCI1VDYQXTuRAMgcETbCEaxTBwc4tbl3Z41MH/VgwTMEBAmqUHFy3tIg1vZkvMCcUoCH3bzW/CuBPrJFViyL16V4fgACUK2XMlyOm4CXK+3/+mAthhJ5Jz+IwM/zNy3NY0hH/Gf/lpIdzEzJWHRYGxyDBIOzMrMAcswAx7j+o+WV0FgQ+u6mrLlvzUjH8pZZEEgFnz1/Aul4Hi9pFLO9//wBwYkwXvZPB9IxAuB08tCWO6RUDPzhQ1RAIUifJGfULPvP+zcUsJjDnIFByGVMwHtjaibY07h+XV9N7KesDnBu4CBIOblvlmJx/3QGCifDDIwQiE9m1fQHh4t5N9bP57v0TIBIgotQWK4u7HHx0ZT5TgDkBf4BU7p+g8MiOnkuDLFPM/Wk1hoZHUK0pCMfFx1dJ7QeE7dEFnjuqDPTJAUJz/cpQnGvm53Hj0rgVOHLRw57z1eha2YJx5v+d17ZnCjBXnF+yen0G3P+aXhcfWmmgQODsNliiqC5b03KU05zmVtmkyfOd6R8ACQEpHSzpyWPrAmnl/QOnRhhvXBBgoQNaZJxgkE6We3BLvRV4+p1SOvtk/v/MujZ05ilTgKud9YkVvVvc/2PXdzd0Wqfa+S1Ja07FQvjKx4WLY5BOzgS5XHxqXd4ANRGq8A8OVa1iFxm7ors2FZFPxAR+eGgcNS9ivpIWruBQKnzKFOCqgT9oyP2DgYe3d09bW5M6BUgqVJPznxsYhoLQOf+OA+HkcPuaIqRALO//xXcn4CuKzeLB53bnBD69vi0Oq8qMl49NQIi4YrL1/p3XZgpw1cOfNO7/trVtWNadmzantlUJZLNUitN9wxCOhjRknNzujgJuWdUWy/sfrjBeOTYBQRRfksnsH0qBQbvfGQ/dILJiFYEi3LAkj7VzOCZwVSpAc+5fhfDnchpX1SlICye6EWSaqFRxcawCIRxIJ6c36UKQxD2b2uuWO/rBvvE6ixPsP7aqgAXF+E/602NlXJzww2tPs5IPz2ErcHVbgFTuH+jMC9y9uWtq2ZxT9QEmCYFO9Y1AOjmd608OpBAQUkAQ4aOr2tDhGh/A5P3/7HgZIxVV12ECAKSgOmfYU8APDoyHx4nEdyACHto6d2MCVz8EinH/puXJ1g4Uc+LysjkxxUBXg+3kxTEQCUghIKUWfkcQpCQUHIG7NhVhk/g1RfjRgfFUVocIeDAlwvvUO+ORBaD6wp3FnQ4+tiqfKcBVBX+AFO5fr/X76A09LWfsqUKcuuuYRCDsNydG8MbJCTiOhGOEXxIh+BNCszScmOuf3j8eRa4Ty65uXpjDtmviNc37+2rYf6Fa74NY1/nIHI0JXMUWIJ37X93j4pZVxSn39Qmcx+SNC1ohxtojTnJ9gCff7MMvT1UhBUGamV9IAUdqa0Ag3Lgsj6VdMlQ5BvDm2SpOj3hx5xpRt+o0Zmf3vvHQaRaWUgbKc8f6uRkTEFej4Dfm/hlfuL4LANW3JkwEwpL9/qd7fYCqr/Ds2xfx1rkaqj5CCCSJQIJMO3aCEKIO1rAR6JiFsWT33k1FOIlf9un942DmuusJ3ltwCffNwZjAVaUAzbj/gAl67PqeS2t3Pg3Jbvbrz+8bwEiZUVUC/3KyCgGCMAIvhFYCabT0vk318OSZAxaut5WUgAVFiU+uKcSO7x9XeOVYuS5YZ9+Dz2/LFOCqsgKxskdWuHVNASt7c5fG+ydLGGHtL0EBnnijP8z7f+VYBdIRcITQcIgo5PoFAevmu7hucS5mUI4OenjzbCVujazvsHNbe7ozjJS0CLPduDSPtfOcTAFmtfPbhPv/4g09k87NaZXLk3SiWznBNow6N1zBz44Mh3n/h/p9nBn2Nf0pyEAfowBCZ3M+uLVeoP/xnfFUxSUAn1pTQE9b/AL/vyMTGJ5Q9Q68da2fn2MxgavPAjTg/ttzhPu3dk4ZTk3b+gAi2j/1Zh8UC9PqXKc7/+RoWc/8wkAhs2YBm7r3eza11eH6Hx2agK84pqDByDn1MYGKDzx7cDwWEbZpVEAHxeZSTODqhEAp3P+D2zrRnpPThumTK8UnNaRZoOyJtwZCjiro9f/CkQpAgAQZZSGQAKQASBAWFCVuWx3H9RcnFF4+Vg5Rn32dWpjrrcYT75RSadDg8pd0Orh1DsUErgoFaMz9I+T+v3h9T1zAbRyfaEti59mE6wNYz01KYRr4DG+eGMXhvorB/8Lk/RP6Sgqvna4ApCEQGUtg61VaMXsIg1JiGjsW57A+genfPFvD0Yu1iAVCvRV4dFt7pgCz1fmNc/8KBGBlt4Nb1xSbszyYXL/+yQbKGp3/79/oi2Z/Yb2LBJ45UIG0IBA48gEIwGfWt6Ej0dPnn45OoFRV8euw2KHHtqdZgfHYNQWXESj4XRvnTkxAXC2C35D7B+PLN3aHpYHT1cYkGQizl1JtVB9Q9RWe3jMQ9vwJLYCBQT89NoGxCoczvxCI8fV5SbhnUzzluexFuF4kmCAi4IGUPB8dFOPQqoHjilBwCPdvLmYKMHvgD5py/18whS+iCUZP68/f7Pgpd44D8Py+ixgqcyT4Bl5phSCUPcJz706Yzybre0Wf/XAaDNrfIOUZwJIOidtWxzH9mVEfr56o1Cm4/f4v7MgUYFZagZD7N1VfH1tTwNr5+ZapDy0hDaZWIZYWZ/j73/SHhe4AGfwvjLpqbdm9rwQhELJAyWv68PI8lnTGS79+dbKKs6NeHQwKxiPbGjjDad/F3MObls6NOoFZrQBNuX9SGv7c0J26SN2VjvQmtwujVbx0eAgWOatvP4lIGQDsOV/D0UEvUqa6c1Nd/j4DeGpfFOSyF/8jAu7cUO87/PhQGeNVFXOA7TQPAHhsezFTgNmhCencf9EFHtzWNSkBb9W9uRXEqfMpErk///BGH3wWIdzR7U4CCGSpMxOe2FMKnW6b4gyc1Ae2NIBBhmlKw/TJ94zXGM8enIgJfLJ2+PPbr/6YwNUDgWL9/g33v7UDnaZSPCGPsedSMU8CRky1ACYZJ/i7N/phX6GOApMRfutqiPH0/hIYDKU45tQH+03zHWxf5Fi2hHG4v4Y95ypgK/WbQyeD8fltbbHjCYy/3zMGVtExIXlgPnNJu8THV+aa1jNkCjDjuH8Kuf8v3dgT/baI9vbjyb7OsPZIPJey2ed46+QoDp6fSMz+FB2XUMzz4z5eeW9CK4ERZJ85/F8x46GtbYl3Mp58pxQeq6zjmRk3LXGxslvEjv/V6QqODdVix+rjo2uPYgLJq6yfLzIF+KC4/8BhZITc//IuB7etaY+xozGWNOE+JAUaFO3tx40UAhTtkxbkb3/TF8uhDpxbIu0HBHGLMHAGwlNBMbu9ULe11O/9m4uQCaf+2QPjYWpEzGiYi3n02va6Gfwp4wwH52YwmBXYKMNdm9rQkbONFDVUhEwBPijuP1jl0az1RWD8Vzd06aZSRhAUon0gR82WjlYc7e3Hkz2ezb7qKex+qz8CHqHykAVRYGmZfu7Fw+MYLHnwlYKvFDzP7H299RYIt65wY2anv+TjpSPj4TGer9/jm8f3by7Umaon3h6D7/t69lcMX7H+DkpbjoIDPBC8j8xdiylCBoFmJvd/Q098Rk4UrNRZgKSRb2UxWh1v9j9+ZwBDZS9+4Wx7m0YlOVBe3bKx6iv88OAYlFJgpaBY74NNKYUHtrSFxwfb0/tK+hiOjmPW+2VdAr+73I0df2rEwy9PlrUSKAVWrPeIFOLRbcXQb0iurmkrAWUKMDO4/1tW5bF2Xj6O8VtBmuRmMTSxx40wf/L8RiL+4Y0LuqNDwNBYSkCB0LMlxOHzCrvfGUPN81H1fHiej5rZPF//f9tqF+0yOp5Y4aUj4xiZqIXH1Twf1Zp5XPPx4OZc7HhixlN7x7Sw+wrKV1CKobxI6W5Y4mJNjxPCzQiTpdIJmQK8r/Anhfv/0vU9LZ3WpMDWTWEtaKPky4qjfQCHLoxW8cqhAesmKyttOvBdGIKUSYxQsW3v+QreG6hAGQugDBzylYLPCjkCPrMuF3tPxfPx/KFxfawfWQEt2AqfXpNH0bE/y8dPDo1jtFxDzffhKR++78NXKoRBSjEe3V4ITVykBDzruaBZF+ojm/tHPfdfcID7t3WFeDygKutkOFhgUVknVk1+z6TFtxWoweE/2XsBiztygJS6ia3QK70TSUBIkBCmDln3ASIQSFIsuLanz8fGRfmGE+1XbuzEhfE4g3V4UEEIYSZqBrFvrIuPLkfhD28EXj1RNhbAB1hh//EyPrJSWwcBHwRfK67JTv3yGuB/f7UdisnEXSiKYM/mEBIeP8mzTwGCMkcOf2Bhqr4+v70d331kearAgicv4LHWg4inRKeeL+XzvvvSYYyUfbTlc8jnHbS5LooFBznHQVvOQcEVyDkSrkPISwHXEXAJcByCQ4ArCK5DkYUJrIyKW546B9xy+IWqQPolkFeC9EuQ/jiEV4JQ4/qxX4L0SpDKPB8c45e0cphR7dmBO15/FP98ohp4W2HPUg0kGPZqlRkE+kC4f8YXr+9OdVobOamN4gBpQqW4SSAtMc4MjqN/rAaSImp85QgI0u1PyETUhF3/Gzj2HGWWJq8LFuXKkzGVBseT5bITab9Br5EQ9UuNboiqE+WR7t/FQ1sKURgvJCBmNwSatT5AGve/rFPi9nUd6YGqJG+Ppl1LWgp4q0DZnhNDpsBdQDqAJKE7Pwih1wEwrU+0wBuFQJSVikTfnmTMIsb1W9dDlPxCSgsqq9DxZos2hvJjTcOIbIUwk4DTjoHCtfjE2kK0xrCN/zhzgmcE9//Y9V3hghKtBLxVJLdl5Df5urX5zNh3elhXdTkEIl3s7jhBpwc960spTOF72jxK8Wu3ilwoGXSzmCeOGUhlrYajqw4i6KhMFUIg7EYxUmb/0a6b4fsCkhh3bmhLxC2yOMCM4f4fva6nMcvTIg5QF8ltdXxSwayZ+OCZEVQ8hhQSkiQcISCkBEFDIGFVzgtL0O2ObcKmU5OCbT+XiBbHJmQj2LaQRxaBwSp4XT8fV4ho9LX/DmqKUfOB+zYVEmwZZwowE7j/m1fksX5BviFEsaOzaZHduuPRPHLcLJfo7RODusGVFBr6CM3yCKkL3olIJ0CQ1fokVDyK9/jhep+7Du4k4ZudrGdjerPXgs+hItjrpiUtQCW/DBdpKWq+gq8YWxc4Jqfo6hhitgl+XAo45P6Dqq+GvH9ismqJ+RMHtMwdMo9LFQ9H+0qmuZWGPpIEHBk0vBWm7w+iFRwRrysIviMlq2E4xQKkIRGOIFAEFW0BV3EnWMWPYYv96e+4GT4zfAX4rNutf26jlVpNmRP8/nL/ZC9yrRmTvATuvbYbqgmrUydpCYijrL0yr6kmkeMkxAqO3XNyEICZ/aVpcCWjbs+BYhBTDPKQAfYmLBA9Z2N7SklFS/ii8a/J4WLgYD/B+NjQiEMYRNGSHGAInHKvh+/rOLXn6zyhOzcUjMWa/QnRs6/mjVGX93/35g70FCQaTeDpT9TTPNzs/U0wv/3cD948h5ODNTiOhHRdOFLCkY7eHAHH0bSoI0XIEgmpZyLdEQJGSfT/wfkVdJBPr/AegRRl+QZVxXji7XF4Jk5AqgaXqnhkSw4uAwQXEG0g2QGiGoiqODs+gVePjgGqCsFVENewrN3HbavzmBC9GOciHDAUGIIEfADzixK/s9TF62e8WW8FnNkx+zfn/h+9rrs+N2uKga+64xORYiI9WdqRZUoo2KFzI9j96zNQJKAgoUhChV0fomowhFFUTJlH90a6cf2SXApXBDAzXjs4ilePV2LvGR/pxEdW5Mx1FABqM5kMDJ8If7F/CMMVE8gysO0/LVuAee0OBAg+E5QiSENBCcG4c0MRr50eMekQU/8eGQSaJu5/cYfEJ9Z31EGcOsgyVR8gcT4bFqWmRxOw+9eno5Ynhp6iiLqCXfYY81anMH56rBxjP4O8fU8xfEbq6u+vnijHA3qKddan+dIfXVmwABPgKcLLxyphzmjg7/hKH+Mrwq0r8yjmCFZJW6YAHwT3/8iOTv3jWUzPZHj8VtmhU2WNPF/h2d+ejdX4ssHRbGsSiahV3CWM105XUKoqKNapyn4sUs3YutBFVz7+s75zoYbBsgqd2cAD8FgL+C0rcxaU0df4yrGqTrlg7fwqpQGnpxg+GI4k3L6mEIM/s5EQndEQKMb9W1RMxP0rPHJdz2TVqKlPQAkncjLnsyHQvtMjuHndfLhSIue6yOVdvXclco4DRxJcKeFKgZzUrJAjtVPsCE2FulIHyaQAHOjciJhCm2tc3iUxrygjBTWQTQfhgL/+V8vQV6pBqjJITUD4ZSxtq+KaYgXklSH8MgSXIfwJwC9DFMr4yKdHUa2UIdQESHn48p77cGSoG+vmSQhjsATrPqW+ry3bHesKeO5QGbM5HWKWOMEp3D8Ubliax8YFhfoZPYUibJXcllQQong2afBYcfrr+88M4ZrOHNpyLvKug7aCi7zros0VKOQc5HMSOSmRcwRyDsEVAq40CW9SC70rtDI4RhnC1r6JBDe2mCpiQAJQQStFAEt7cljeBQivAuEDUikIrwypxiF5HJmCZvkAACAASURBVEIFSW8lCF8nxV3XXoJsK0F449g7Ng+nyp14+VgVa3rzAAQ0+aa/NLEu5t+0MIelHRJnxlQGgd5X7t9sj+3onjzmTwauWtQDtPIRbFhUqng4eqEESTrPJ1jm1BEEMj3/gwBXQHcm240I6/MJ9Y55s7hGrLg+FgVGCBeDKDArPwqIsU2RqjBO8J9Pbwcbf6PGDN9YFgXA9wkeQ2++wqfWF2Yt/JnRCtCU+ycgJxn3beu+5GS3lrk9LV63SaO9JwahWC9tKslw/UHAy+DqYNE74pTlTa1zicBNCLpGJBbCowZtGGxLFzUMU+btht9ncy8RBcSCOxMkyPlM+LuzWwEQRirAb854UExQTPCU9hl8Bjxf+x+3rSrM6nDA7GCBktw/K9yxoQM9bc6kZujJFLW3mvHrFMja9pwcgpBB0psIhT9Y6UUaEB0kvkXLH1Hsh6BI51MF3G7fY9PvNqHEbCfCRWWWYAZbs7ydHqEtgH7zc/3r0F9tC1mhl94ra8eZdZKfpxQ8UzjvK0JvkbBtkZspwBXh/jmF+zc/zSPXdU8pv38yJYyqST2AHS22UyPOj0zg/EhFr/BOAiRIpzubQFeY928WukAAg4IfwFrji1L4dPv72Itd28/Xa4sV9VURxNHMGcLW8XbkN1CWJy9sD3sXAcBvztQwXFGomVQIX2kLUDPUq+ejrvlupgDTpgkp3D8zFhUFbl/X2bQvj/1cGqSxWZ9knfdkFCg431vHBs2MLyAkhQvdhcucQpjZnUyhC8WZLET1VLC6VMcmg8TsnnTmYzN/eLiK96GzskHBQTlp3BLUqIjhwsbYDfSY8OrxivYDfJ0LpJjgK+0H+AzcuCSHNidTgGmHPXXcv+FFHtrepR1LXFqnNsMahnuVYFgm2ylOKcY7p4bN8qYILYAgEa7xK4xFCCBP4AhTonUipcz8MUcYccXgpjiuHuaQpQhh3g9FvgKgcNzZgZuWt1sfpBXhp8dqUAx40F3naorhKcBXjJqvJ6mbl+czBZhW+JOW92+U4eEdPVNmeepYIo7n08c80RQLkiZ0754bQanq6axPCpLfJIgIjpQm4xORBUhLc7aWaBL2Gl/JxDskZn9OL5VEiP+t7E8TM7EzQMlUg0WlkAoHcT1WdLm4pkNEzXsJODrk4eSQD89H5AArGCXQ2y0rclkc4Mpz/4wdi/PYtKiQ3pKG47LQrGa9daSsyTHm8Xd/9h5e2HsBSkhwkPsDYXJ9pLUKJFDXRZOmJ3y0stvB1z7cHk78ylxcUDx/8KLCX7+lwFQEuAjQQmyY7+Cr1xWNZRLGRyEoz4WUjFuW57H7QMXcNM1G/ex4BTvNUq2RMjKY9Oes7nGwqChwYVxlFuBKcv8P7+ielKxeblF7K1ZoeKKGl/f16QYixjEMmtJ6TBFUYGWYk8TmK9SmYTtysYrTIx6qPqOiFGpK6cee/vxV3Q5cAXgeo6aAmg/s7/MwXCHUWG8+S3iQYNJJbx9alk/iM/z8ZFk7vaEzrB8HVsFXjJuXzz4rMKMUoK7s0Yp2EgEuAfdu7U7F+K1yd1oJ+FRZoef3nEHFBxDLoI8eR5DryieMvX66pnN0AkgSpkjozw1pSoPrFANvnq9pft9EA3zj2PoAOvICmxfkEObsMTA4Abx9oWaoUISskFYKXS5509LcrEuKmKEQyA58RU7bpze2Y15RXzIHOLiBY9iwWqoRRsLUopk/P3wRS+YVIYUESxdCChDppldCSO0Mm6iWNMueho4wbLaHLOxPsYhwzLdJU17zoJAjrLimGPkIygezp2kbKDyyPYe2nAewB+IqiBU6MY61bXkQ+xjhdgz4C0AkoJQu3fzw8hz29fvGH9NezC9OVLFxvqs7SMOaeMzjjhxh/XwHhwe8TAEui/tHOve/04I/U8XsdT5Bsr1l4vi6diNm9icAfSNlLGx3sGzzfLTldNJbIe+gkHNQcCRyrkTelchJoXN/pM73caVOj3CDvB8Z5P/oHKAgJ0gQ1ef+pAhcakMs5ekGWGpC5//4JYj5JTywXDe7ihpfjYcNsV6s3ok+LISvGFIQlAK2LHJRcMqY8KLJ5LfnqyhVi8g5ZDFuHLOeNyx2Z5UCzDwfoAH3v6BN4Pb1nZfFqjajTZOsUjOf4s3jF02hu8n9MdRnUOguhUDQ+T9E0nb6QwrHT/YPQikdyJPVa4nFNaLzGBCm/FiZY9QXKKBDtXWooIB3a6vhh/BIQyJJAtctdq2VwzXs+c25qkmrNtDHxAMCWnTTAhd5mfkAlymlCvZq7wSF+7d1hSWC07ElV35PrgzfqPszE2PvqSENcWRU+B72+hF2AyzoGV2YmmDE1smoX7s4EQRr2HuUkbo0S9ScMNHtLb4wk+4UZxThsNoEDxr6hEluxuLctDRvFI1DbX39VBWer5UhEPpgqyl92NaFbqYAl8r92xjHLtp+aHv31Cq6LtPpbXT+I+dGMV7xDfcf5PoYJZBC5/CHQS6qC3AlLYJtCUQCntXFBJP3LGG96qK7Sb7fjgMY/Pf8wPrIcQbgg4wyEFb0OJjXJmOO1rEhHxdKvnG6I4e4ZhxwjxnbrskU4JJNAIHj3D8BWxbmsOWatjphaLZNVcAnywL99sRgBH3M7E/G0RUG9khB0Vq/FO/2LChWKBlbtTKpGZzwQRqFJOLPqVi0FxxZUYIVBGMfe0d68MNjHfCJ4ENnewallZ7P8H3GDUuceDkngDfO1uAroGasRQCHgtygJZ0SPQXKFOCSuH9wXBlYhdx/o3TklC4njZmTBu9PrupYFwlmYKLm49DZUdPgSoSpDoJM6xMK1gBLYPwkXKH6zE8i7fPUzej29XM858dmg5JNsDi0AkEOUJT5GRzz/ZOrsa9fJ7opFUwChJqv/68xYcfifJ26vXW2aoTdbAYOBblBNZ9nDQz6wBWgYctD86M6BNx7bU/LReout+Y3WVOcTJVgAO+c1Hn/wnJ8pUmCg6E6gwxQQ2iGsi8ofTHtsNeP1QzLzvhMKnJa7n3ow1jWM8z7CZSCgkZi+oyeDzx5cjUmasD+C54JZpnAFhgetDB3uIRV3fGlZocqjPeG/LBRlrYacSuwcYEzK2ICMygOYKU+WPkpt68vRtx/E5oy+TigLFUKjTlV1igY/+HlY9hzuqTXciEBJgkmAcUSEIHYBR0hRCztOc2JvRIC0pkj/MGH2gEWYHQA3KlTm5nBRHj3Yg3PHKhCEVBTDkDA2+c9bFjghtaLlQnskV51ePs1ORwfLsc+Z8+5KhZ3FMDGf4hNRMwoSMKyLolTI36mAFPl/jVK1mb6oW3djTMfm/X14ShYlho4a/H+ZM3wyYFx/PbUGBQLnfujCL6QwaJHUCyinj/BhzSLAF+hGsJKGThykbEyNmub6jJFWNEtAeGjpoSJ9BLeHfIx4REKrmaChF2LzIx18xw4Qju6wTg04OHWVQyHyEAnjnqpmp90fa8z4xVgZvgACe4/KN7oLQjctr5zUu3LW2H+qUKkpEV59rdn9apaJLUFEHr2h16bJiorYa0AjA9u23OhFpa4MFnur/HCNy3ImfuhoxU+E/b2+SbXHyZfKcrzEQRsmBefK6s+cHjA05DHSo8IMkQ9n7G8W8Kd4TWHH/zlNeH+793aCVeKuLMwyYKXVgoylWQ5ZsaP3u7X8MbM+qEiQIDhgCFDSMQk9P8QH8h2aEChrMjAM2EgCsEnDd22LMqZii8Rft+9FzxT6K6dX485dGg9BWxaUO/U7u/3wiBYRItymDTHQGiJMgh0Cdz/A9t7mqY+NIoLoIVFmAwKsY9/7b1BnButQpGj11UUUs/8pIVeBd3gYpGsD84FrAE40KewfbGjBd0k5QUsz6IOgc6CxEglgkhnRn1cnGB053XFl1LaMgcJdYs7BTpyhLFqdNfOjPgYLiu0ORHfFE1AOkViZY+DI4N+ZgEmzf0bpmLj/By2Gu4/6fROZmvmNE+qC4S1PbOnz+T7656fTAK+6fvpm7VWFAgqhBsisXz1+7/t6ffD+gSlpL5OIuOrCGyanzO+StSndF9fDTUWJhJMqKmoAqymgPUJGMQADl+MWwEbEnk+0JsXaM9RpgCT5v5Nr5oHd3SnRmLr+NMGfX1aQpzEonl11sXsxyoeXjowGAp+BG/IsgASLKzXZ8B2eowxMMEaogmjGAYO+SBsXOiYqq9oxccD/b5JawBqSsFn0n6ASXlY21sPGI5c9EIaNKgS83xddxAow4oumSnAVLh/CZP3j8nz9pdbD9AoOe7F/f0oe9B4mqS1OVAszYwqoZQAKwlmMWO2vReU1QPUWAHWxTsdOQeLOkQo/CDCcIVxZpRNzx+KEt6MH1B0CQuKcZEZqTD6Sgq1QOj94HijSL5uYEyZAkye+791bRHz2t2mXR+SM77dOCpYRI7o8leM+dGevji0ERHUYWE2MFhAb1Yt7Qe9vdPvwScKuzj4rL+DbyzBhnm6ZXq06h5waKAKD4gyPW1mR3EYFLPH0UHPCoYhDKoFEMoRQG8bZQpQx/1zkvvX8Of+a7vrHdYWPkDLyG6DFV2a5f6cGprAG6dKesYXenZXytCfIigcF3Y7txm1jdUY711U8JQpfQShBhiGh7Cyx4mCdWZ3dMg38CUuxEEniKWdEjIhy6dHfFRD2KOZo5qKU6PXtMtMASbD/XcXBG7f0Nl0EbpmM3ZDW3MJ53v2t9r5ZQNzQsFn4wwHvgAHx8y8bX+/Z9qbAzXPtDlXAr4CchJY1iFgJyxVPeDksB86tHb3h6AFyjXtcbGpKeDsqK8tgCmQCXODDBzqKYg6xZm7ChCr6Ytz/3dv6UJOipYCfLnr+rYOnDF+9M6AvjIRrPAirK5pdr9/xKtbZtA4Ouih7DE8wwJ5zLqrGwM1RVjdW8/sHL3oWY5sAIc4zP1ZmuLUnh71YxbA86N4gOdrizqvbeZFxd7XOEA998913P99ZrG7uvcm2pEnUxXqSnwTfkLy+DRWyS5A+fXxYZwbroHJCVubhEscmQ4KWlHi3P9M65LsMfDuRR/r5lOMFVPm/i/ulHVpDmfHfJQ9DtcFCFqsBBNDT0EgL2GaAugxMK5Q9hhSmKRT8x5l4K5vFKBvhrVN+YBUMp37XzfPxbYlxUuDMC0sRCvIk6wH+OHefquGKrjSoOeP5UxYGjdTW4QfuuiFjIxnVXB5Jkt6WWd8RvcZODlisj19hKxOwAb5CljUXr8o4dkxP3Saa348RUJDLppx5ZLi/Rb8Ztz//dt6Jh24aglhWmzNfIbxqo+X91+01vsSJu/HKAEoEfWd2eNCSWFwQoWQpBYKqRbUZSnMzqkRDzU/4veDqrFAsBe214tOX0kvpu0ZiBXEECI4xOjMi7mpAJPh/u/e0j3pZLWW9QAtLEQz1uilAwMYryGO+00maWi7gmuaJYvEaarSCGXI02tB7c6Luua2gxOMUpUjP8AwQT70/64ktLvx7z5eY4xU2Mz4ltXgiE7tyNGM8pQ+AHVMtDw0+P+W1W1Y2OFeskBP9fVm47k9fUbwzTUYulNDICvAYDm/M32FlGNDEbNTsyu4TPBqcUc9pDkz5oeFLjUVHKutgO9zqlM7MK5M01yEMQHPSpIDgLwzxxSgjvunSMID7j8Z+b3SkKfR+88Ml/HGqTEj+DrdmdmGQGS1IZk9fdAmPMa5MRWVL5qSxprB6YtSePoLJRUpS4jpg1QJoCtfP5sPV1RoMWy/IWKUgDaX5qgFIA47G4fZ66xx4Sc2dEXacgnLlrZymie77Olzb/cZ6CPDxa2DGZ9tdWaKr989C8apES8MbIURXl8La05qeJKENKOVyHewBdlnTQUk3+MpYKQSKVpYNhlaEoYrqG6NtLkDgTjZSVPhjk0675+bRG6TW51PMNWCmVQnm/Hc3gFrNXcRpjmzXcQbsD+zzAqcH9ONcz3f6umpgv+B+UWRbgVMYUzNqv0NFKEjX//9RyocxQ+C3CA/SpTzFM+YQpkrfhlki14D7v/ebT31sGWKC1606vqQ7BqR3AjAmydHcHa4Ggt4RRO9eQ4c0qKzbfgMnB1TGvb4kR8Q0JY9BVH3rYIFtmvWmgA1P5rR85LqIrwTtQj6hFbAMEiB9ZEzxAS8j+5IOve/qtvF9iXF+sDWFNf1TQayUmf8JudXAH68ty/i/sM0YYH57RK3rW2Prr5J0cvPjldwbkzh46tydY4lAIxVGRcnFH5zphoLPiWHK4AHt+h6iJ+frKbW1goCHt7aVvf8uTEfJ4Z99I+rWAELAJwb9fHRFTks7ZQ4NFDDsSEfinX97qoeiQ6X8C8nqzFIM1RmFF3CnRt0p7h/Oqp7hvrm+ttc3U/o1pV5fGSlPvfAhMKJIQ+vn67i3UE/WmfNCqjRDICPzvsh+HVlXWGPSoV7r+1tOaOnCXRad2dQY4Fvdf6Jmo+XD1wM2Z6AAgUIf7VzMT6xtq0li0QEvHa6hv/2mUH88EsLUs182dNU4YWSwv/w4yH83BI2e3x/5zzcv7kAMNA/obD5O+frhPkPbiriL+7qqfteIxXGeI0xVlX4+j+N4JmDUUeHvEP4y3t64Epd1/ux/6cPkoC/erAXrokI/3fPDuL7eyYsSKOwc2sRf35nD3zF+H/fcvGnPx2FMnk/113j4v+4oxvreh0sspS+5jPOjfl46WgFX3tuCL6KN9IlmjwzNyshUEPuH9HSQXdv7UmHJVNdx/cyfYCfHhxAqZrO/WthirbxGqPgChRcgXEP4fNlT5t/QRo6FFyBqh+9PlZj5B2BlT0OfmdZDq/+/kJsnF8/B63okrh5WQ55RyDvCrS7hM+uy6dYCULeiV9HxWMsLAqs6XWw/Zocvnt/L/7xsfmx36R/XCEnBYYmlFnuiDE4oZBzBNpzArs+0YX18yJBLtXYNP0l5BwR4XoFrOySePW/XoRbVuSxqENicMLHiWEPZ0c9MIAV3Q4e3daG7z3YW+dIqxnAHrxPECid+795RRsWmrz/5IzeaomjNAPQbChzrLLer6z3P7+3P879I+L+/+Dpfty4tBDmBH14eR5/9mkdtX71eAV/8cux8HPeOlfFEmsWPDro4X/+ybDG4IqxoCjxXx6ZB9cshv2lHUV84+WR2LU+sKWAJZ0Cns8o+4yeNonfu7Edu/eXG36///jaGF5+rwJJwOoeiTs2FHDXhgIWtkvctaGAezcV8KyxBMqCkZ6qnxzW9jr4zt29uO+/9OuucQxUvAivBdmeDMa3Pq3Zu4rH2Huhhv/1xWEcvuihKy/whe1t+Mr1RSztdPC7y/O4brGLX5+pzSi/yLmys39i7U4VsD96wbZ7ru1uKOFpfXxifX5SoExTBUn4CIEJVgycHynjNydGo5RnBEEvDYGGK4yX3iuHzJDdIeEXJ6t46b1K7Lsv6YgeV32ue/2z3+vD7sfmY15R4oYlbh2u/+r17cg7AieGPIxWGdcuEti2yMW6XtmwwHykomKf85/eGMfXbm7Hn36yCz1tEt/8RBdePFKvQJ7iGAzxFMMRhFtW5PCvP9SOf/+rkhZwP+5Me4rxmXV5XL84F0Kru/6630p28/H2+RoGJxh/9ukuLO2S+PJ1Rfz6zPCMUoArT0ZZyx1FnWsIHXmB29d3XXI6cx2LY1WBTbUi7IW9/ancPzfh/i9nLOmUKJhg0Eg57gl/eFkOS0xy2tFBD997qwTPZyzpkNiZ4vA2G//x9VKoML0FUR/t5YilCe7FhZKPs6M+ugsC/+Yjndi2yDHWq/59H1uVx8J2iYqn8NXdAxiYUEm7j//z56P4k1dG8O9+NoJ/3D8x45ix980JJti9ChU+tbETOUdMGtLUrfKYtBgp/nYs564JxHp+Xx+CtJ7G3D9Scq1bj7W9Dr79ma7Q6qzpdXD76jyKrsDpEQ9P7osLxZeuK2Jpp8R4VeF7b43jl6eq+NrNHVjZ4+CLO4r481+MwZtkRrFiXdxy01Kg4BCWdUocslZvYTPj26PqA0/sHce/vrkdq3sc/OU9Pbjzr/sT59UUaNAsa3CCceSiH0Kroku4a30hPP6dC/oz35uB7VGcKy37SMQBgkjwPZu7URciaAZpEvUAk/bAW0CsPadHcGrIM7O/jHJ/6rh/cUnc/4J2iX/7sa7U1/7DayU8fSCCJd15wh3G2T1fUnj+3TLOjSm8N+RjZY+DxR0SH1uZxyvHKpP+/ONDWvjac4SlXQkFCLB8YuL4y9dG8ZGVOXx0ZR43Lcnhf/loJ44P+THFqilguSmMqSqO0bTf+mQX/vDDHfB8jv0cJ0Z8bP7O+bkCgTjOD7JZEZoZK3oc7FjeHmVYBlCFphq5vXRWKHj8/Dv9Yd4PE4GF1eOzQd7/VMaFko9jg57ehjyMVFRIEf7Zp7tjVOmd6wshjTivTeDha9vwtQ+34xcnK6h4Ctd0SHzluuKUPn91j57jSlXG6UQsQSHKC7J/tZoP/I8/HsLxIQ8deYE/uKkdnVbEN+j/GZzPFRTCNu0vaKas7DMqPkMIQltOYKis5pgFIEvayEg4Me7e3B1VQ9qH8qWzPq0Wwk57f8VTeOXgoO7tE872VubnNOT995UUPvc3/SGOXt4lsfsL87G4Q2JwQuGz6wr40WFtBX7/pnZ0mXz57oLAd+7urTvfbavzWFAU6J9EZZUkYE2vFswJr14BwFpY8zLOx9d8xp7zNfz7X47h8ds7saLbwR99uKPu/Pv7Pdy1EegpEFZ2S/zylH7+m6+M4KWjldDyfOfuHizvnpkLkoorJffR5M91z99p8v6b5fcnLUCrRldTbXuiGPjnw4MYrVHY5zMu+CYb9DLz/ktVhWNDPo4N+Tg54uMXp6rY9fIIlGL0tgnctFSzQJsXONi0QAvJhTEfx4a8yHIMejg/poV3UbvAPRsLk/rsf/uxTmwwcYb+cYWzY/UYvOJpTt8u0w7SI77zqzH88lQNzBzCHXv88/EK+ks+2lwdO1hoconKHvDi0QpePFrRK0bO4KyR91UtGcCHlhexuNOtoyUns65v0+Mv4XzP7RswfT0pqv4KEzYM5k9wqdMRuzk17GO0yuguEFb2aMF6eGsblhoY8cKRMnYlYgM3Ls3h/763B71tEr93Qzu+99Z47PWegsDdGwqQpBen+PgqnZbQ5gr0lXx8/Z+GUU3xQYPgVNJ5DrY/+tEQnv/yAqydVy8qzxws4zsG56/tldj/R9fg958exNkxH4MTjKWdAl++roi8pEsAj1ebAhhK5q4tXcmKyFS3oU5eg4XjLaeZUrIsGp0vCYEujFbx6xPjGv6w1c05iAJDB3piLNA0jfMlH6MVhe6CwJaFLnISeGx7EY4gnB318H9Z9GXkS5TRP67Q2yaxpldiR2Ihuq/d3IH//kOsK7VykWEfNfGBF45UGv4sXpP7fviih3/3zyP49me6Ma8o6xTlo9/twyv/aiHW9DrIO8DfPjzPJNDpHKEF5j2lqpqRawVc8ThA2DWBtCP0yXUdl3SeJASyn0v/3OZO80/2DeoGt9B9PRVFM7+mPy0fIMFUlWuMUlWh4nEdjQhohqSnIFCqqhDT2+NAv4eKD4xVFG5ZnsO/uUVDlVJVYbjM+MWp+vyg0Srj6f1llKoKi9olfu/GIsqevo7RitJlpUJ3gDsz4uG9QQ9vnq1i598N4LEnLsbu47w2gdGKQq+p6GLruflFUXdf/+rNcTx3uIyyp1Mt7InlxLCPB/52AC8dLeP0iIe8Q1ja5WBFt4N2l3BuzMf+vhr++MVhPGpdx0wZhMdP8vSfNE7EB6LVXQCuW5KHgI6vB6vARMlxFsgIVoybrNfbMndC001BXe875yYwOKFM09sAAkmrED5qGov4lUEQ8DmDw398uJya1fm7y3NY1C7w5tkaTqbMfAuKAh9ZoaOozx4s456NBQjSmZ/NHNz7NunP/ZcTVQyWVXgd9jg35uP4kI/hikI5ZdH2665xsapH4kC/F9KiWxY42DDfwdFBD3svpK/0fse6PPIO4cUjOhs0BiUEcPOyHG5a4mJZl8RIhXH4oofTIz729dUwVJ6ZZUNXXgGIw/Vrw+U6OVoBMqgKg+m+GbRIjDDOZV6eEXxQIMxstTexcH9Ag5pFI2DygqxFf2dN5Vc2PmAfIJyI7Vz+QIACgWLNshCrcC1dNq9REvxfrjraq8rYVQnBel4krCiwOSbMq8iEP1OAywoCkOW5shY2tnIzSZriiGipdLKhD12mJlqWgMPziijSSxy2OowpyFTTTbMxWxWA+Mo3tyFTfUVa+MPAkjBCpsBEIJOfEF0NX74OxnqoI1wNJXpsnN3AKoXCT7Ou5jcbUxYQdgCMA2i/olbAwAmGLqyIpTYTAEizjm0kcMTTN/0yJeokbQc3llCXFP5pUcNszNwx7oB4FDz9ClDXqDZUgugACmAJGBAi5vDqvPzpvBqLwrGWZee0ZdhnQb/PbEyLARh1wHQa4MVX1hewnFlrdg0DTWwv/xJPn5g+CEaWLlgzPKXl+FM288+FwXTaAfFBMG66UmyQJdYprE46xGGm6YXenK6TDX2FTPjnigU4KEDizSuuaLEtZXVzStmmc/X0SZ27vpViNq52BRBvCoCfye5ENuYoBnpGYNfyQyA6kN2MbMyt2Z8OYNfyQ0Ho6ensjmRjjmnA00AQe5Vid3ZDsjGnhpF5rQCPL3kdhBeyu5KNuTH54wU8vuT1SAE0Jvrjacg8y0Y2Zrr0s5Z1PSIF2LX8LRD+JrtB2bjKZ/+/wa7lb9UrAAC44usAlbK7lI2rVPpLWsajEVeAry89DsFfyaBQNq5K6CP4K/j60uONFQAAdq3YDUG7shuWjatqCNqFXSt21yOitMFM+Mbpvwf4kezOZeMqmP2fwDeXPZqWZZmec0zE6Fn2VYCeyG5eNma98Pcs+2qjFOPmOZfMhG+e+d+geNesWRI9G9kIMT/twjeW/mmz/PrJCfU3T+6ET98DuD27sdmYBcJfguSv4hsrnmrpGkzqPtK6kgAAAI9JREFUfN9Y8RRy4loQfT9jiLIxo2d9ou8jJ66djPBP3gLYY9ep68H8bTA+m93wbMwc2ccLIPpjO8h1ZRQgGH9y9kNQaieY7wfz5uwXyMb7L/R0AEQ/gBBPBbk9U9eb6Ri7Tm0E6D6wugFMm0C8DEydAIqZ85yNy4Y1wLhu3kCnQXxQVzHyM9i1/NDlnv3/B7mUMsj3w6NxAAAAAElFTkSuQmCC;" parent="6pHxYC2a_yhWoSQ6z3BF-76" vertex="1">
          <mxGeometry y="81" width="40" height="40" as="geometry" />
        </mxCell>
        <mxCell id="6pHxYC2a_yhWoSQ6z3BF-78" style="rounded=0;orthogonalLoop=1;jettySize=auto;html=1;exitX=0.5;exitY=0;exitDx=0;exitDy=0;exitPerimeter=0;entryX=0.5;entryY=1;entryDx=0;entryDy=0;entryPerimeter=0;fontFamily=Helvetica;fontSize=12;fontColor=default;" parent="1" source="IzBpSC75Lcns6cSvXki5-4" target="6pHxYC2a_yhWoSQ6z3BF-67" edge="1">
          <mxGeometry relative="1" as="geometry" />
        </mxCell>
        <mxCell id="6pHxYC2a_yhWoSQ6z3BF-79" style="rounded=0;orthogonalLoop=1;jettySize=auto;html=1;exitX=0.5;exitY=0;exitDx=0;exitDy=0;exitPerimeter=0;entryX=0.25;entryY=1;entryDx=0;entryDy=0;entryPerimeter=0;fontFamily=Helvetica;fontSize=12;fontColor=default;" parent="1" source="6pHxYC2a_yhWoSQ6z3BF-81" target="6pHxYC2a_yhWoSQ6z3BF-67" edge="1">
          <mxGeometry relative="1" as="geometry" />
        </mxCell>
        <object placeholders="1" c4Name="销售" c4Type="Person" c4Description="操作主体 : 金融/数科/CAP/浩淼" label="&lt;font style=&quot;font-size: 16px&quot;&gt;&lt;b&gt;%c4Name%&lt;/b&gt;&lt;/font&gt;&lt;div&gt;[%c4Type%]&lt;/div&gt;&lt;br&gt;&lt;div&gt;&lt;font style=&quot;font-size: 11px&quot;&gt;&lt;font color=&quot;#cccccc&quot;&gt;%c4Description%&lt;/font&gt;&lt;/div&gt;" id="6pHxYC2a_yhWoSQ6z3BF-81">
          <mxCell style="html=1;fontSize=11;dashed=0;whiteSpace=wrap;fillColor=#083F75;strokeColor=#06315C;fontColor=#ffffff;shape=mxgraph.c4.person2;align=center;metaEdit=1;points=[[0.5,0,0],[1,0.5,0],[1,0.75,0],[0.75,1,0],[0.5,1,0],[0.25,1,0],[0,0.75,0],[0,0.5,0]];resizable=0;" parent="1" vertex="1">
            <mxGeometry x="745" y="1740" width="200" height="180" as="geometry" />
          </mxCell>
        </object>
      </root>
    </mxGraphModel>
  </diagram>
  <diagram id="TLjkTC5cBJmYaDhqW6Aw" name="Level-2">
    <mxGraphModel dx="899" dy="568" grid="1" gridSize="10" guides="1" tooltips="1" connect="1" arrows="1" fold="1" page="1" pageScale="1" pageWidth="1169" pageHeight="827" math="0" shadow="0">
      <root>
        <mxCell id="0" />
        <mxCell id="1" parent="0" />
        <mxCell id="TJ630X5ok3T4RJz6_RFa-1" value="" style="ellipse;whiteSpace=wrap;html=1;" vertex="1" parent="1">
          <mxGeometry x="400" y="260" width="120" height="80" as="geometry" />
        </mxCell>
      </root>
    </mxGraphModel>
  </diagram>
</mxfile>
